<?xml version="1.0" encoding="UTF-8"?>
<svg version="1.1" xmlns="http://www.w3.org/2000/svg" width="512" height="512">
<path d="M0 0 C5.09145256 3.29280312 9.34183152 7.32129422 13.59814453 11.60009766 C15.80786444 13.815675 18.03755588 16.00930453 20.27175903 18.20011902 C23.02043906 20.89823753 25.75830991 23.60723984 28.49609375 26.31640625 C29.31140564 27.12061508 29.31140564 27.12061508 30.14318848 27.94107056 C31.70773105 29.4878517 33.26497659 31.04162401 34.8203125 32.59765625 C35.73256592 33.50580078 36.64481934 34.41394531 37.5847168 35.34960938 C40.62802289 38.72534378 42.09416932 41.2627337 42.05859375 45.81640625 C42.06632812 46.80640625 42.06632812 46.80640625 42.07421875 47.81640625 C41.76532828 50.1421698 40.95233547 51.78308763 39.80859375 53.81640625 C41.86195381 55.95093867 43.9253984 58.07380194 45.99609375 60.19140625 C46.57423828 60.7946875 47.15238281 61.39796875 47.74804688 62.01953125 C48.31845703 62.59960938 48.88886719 63.1796875 49.4765625 63.77734375 C49.99500732 64.31149902 50.51345215 64.8456543 51.04760742 65.39599609 C56.35835779 69.67964307 62.07838365 69.03323169 68.56640625 68.90625 C70.74218492 68.8857918 72.9179663 68.86561925 75.09375 68.84570312 C78.49181475 68.80264962 81.88969959 68.75461237 85.28759766 68.69995117 C125.86069769 68.09460505 153.84963198 78.82413218 183.18649292 107.10903931 C188.81856166 112.58135847 194.40576843 118.0978077 199.97558594 123.63330078 C201.95867254 125.60291655 203.94884917 127.5649421 205.9453125 129.52099609 C208.85406163 132.37095966 211.74205427 135.24113673 214.62890625 138.11328125 C215.52151154 138.98321716 216.41411682 139.85315308 217.33377075 140.74945068 C225.09394687 148.53653257 225.09394687 148.53653257 225.80859375 154.81640625 C224.72589104 158.42541528 223.5937157 160.91496994 221.12109375 163.75390625 C217.58996663 165.37631601 214.53840823 165.76074908 210.80859375 164.81640625 C207.75922462 162.84738504 205.32986985 160.41286951 202.80859375 157.81640625 C201.78958984 156.81480469 201.78958984 156.81480469 200.75 155.79296875 C199.08442592 154.15085346 197.44274067 152.4896199 195.80859375 150.81640625 C191.08936087 154.74776631 186.6557591 158.85123558 182.359375 163.23828125 C181.17005269 164.44023362 179.98059569 165.64205273 178.79101562 166.84375 C176.94590355 168.71377269 175.10245413 170.58538112 173.26147461 172.45947266 C171.46516083 174.2859666 169.66269369 176.1062068 167.859375 177.92578125 C167.03739372 178.76795197 167.03739372 178.76795197 166.19880676 179.62713623 C160.9420759 184.91817735 157.09470959 186.06262781 149.87109375 187.12890625 C133.06495474 189.87756546 119.92744001 196.94362794 107.80859375 208.81640625 C107.18082031 209.40808594 106.55304688 209.99976563 105.90625 210.609375 C94.99629063 221.81620401 90.22511528 238.202266 87.99609375 253.25390625 C85.88925674 263.7204248 73.22034944 272.51790112 65.87109375 279.81640625 C64.60198002 281.08049475 63.33309786 282.34481581 62.06445312 283.609375 C58.98183055 286.68107349 55.89608947 289.74960633 52.80859375 292.81640625 C57.45951334 298.40205275 62.41847738 303.56291978 67.56787109 308.68920898 C68.42706146 309.54854538 69.28625183 310.40788177 70.17147827 311.29325867 C72.50809146 313.62929803 74.84688822 315.96310866 77.18671751 318.29592395 C79.63886703 320.7417864 82.08815062 323.19051551 84.53775024 325.63893127 C89.16795237 330.26603578 93.80069576 334.8905871 98.43437636 339.5142079 C103.71330789 344.78192936 108.98937159 350.05251925 114.2652061 355.3233422 C125.10983257 366.15753985 135.9580231 376.98816157 146.80859375 387.81640625 C149.71727649 386.41873415 151.77022731 385.09206378 154.02905273 382.77539062 C154.63325546 382.16135376 155.23745819 381.54731689 155.85997009 380.91467285 C156.50172684 380.25318237 157.14348358 379.59169189 157.8046875 378.91015625 C159.18152115 377.51290309 160.55847807 376.11577139 161.93554688 374.71875 C164.09510543 372.5156807 166.2521396 370.31020941 168.40649414 368.10205078 C170.49110013 365.96913162 172.58485632 363.84552659 174.6796875 361.72265625 C175.31942001 361.06116577 175.95915253 360.39967529 176.61827087 359.71813965 C181.62234126 354.65901565 185.35672454 352.91452441 192.47973633 351.93115234 C210.88861021 349.33279573 226.53739879 340.85970616 238.7109375 326.609375 C246.0478834 316.84044331 251.58794471 305.95275675 253.46484375 293.79296875 C253.57658936 293.09284668 253.68833496 292.39272461 253.8034668 291.67138672 C254.10433805 289.67744976 254.35826891 287.67659454 254.609375 285.67578125 C255.82225508 280.5328086 259.16860215 277.47773689 262.80859375 273.81640625 C263.84277447 272.76277619 264.87686569 271.70905829 265.91088867 270.65527344 C269.4985227 267.01795822 273.12107266 263.41639462 276.74609375 259.81640625 C278.01520748 258.55231775 279.28408964 257.28799669 280.55273438 256.0234375 C283.63535695 252.95173901 286.72109803 249.88320617 289.80859375 246.81640625 C288.32888164 243.36746781 286.38499843 241.17158171 283.7109375 238.55859375 C282.90978516 237.76839844 282.10863281 236.97820312 281.28320312 236.1640625 C280.44595703 235.34808594 279.60871094 234.53210938 278.74609375 233.69140625 C277.08636753 232.06601919 275.42870628 230.43851998 273.7734375 228.80859375 C272.66923462 227.73134033 272.66923462 227.73134033 271.54272461 226.63232422 C268.39677587 223.33800256 268.40182929 220.47647914 268.47265625 216.078125 C268.80859375 213.81640625 268.80859375 213.81640625 270.80859375 210.81640625 C274.3745521 208.43910068 277.49669887 207.12244848 281.80859375 207.81640625 C285.89214314 210.31821724 289.3000415 213.05334263 292.6902771 216.42393494 C293.62093491 217.34461761 294.55159271 218.26530029 295.51045227 219.21388245 C296.52449563 220.22703017 297.53842305 221.24029393 298.55224609 222.25366211 C299.63334548 223.32713206 300.71484322 224.40020096 301.79670715 225.47290039 C304.72532207 228.37963329 307.64739684 231.29285395 310.56763411 234.2080009 C312.39693597 236.03364992 314.22752718 237.85799609 316.05855179 239.68191719 C322.45979303 246.05868 328.85530644 252.44113016 335.24609375 258.82836914 C341.18044044 264.759088 347.12776613 270.67656801 353.0812248 276.58809561 C358.20884966 281.68088245 363.32666687 286.78339144 368.43724978 291.89327914 C371.48208145 294.9373222 374.53065883 297.97735494 377.58939743 301.00742912 C380.47179815 303.86341887 383.34167748 306.73145043 386.20293236 309.60861969 C387.24660174 310.65408574 388.29443825 311.69541372 389.34702873 312.73189735 C403.02808623 326.21652479 411.09566787 340.32248306 411.30859375 359.87890625 C411.23236614 368.13089121 410.46466303 375.30115273 406.80859375 382.81640625 C406.3496875 383.77804687 405.89078125 384.7396875 405.41796875 385.73046875 C398.30013597 399.62897381 387.57628017 408.61453446 372.81640625 413.94140625 C369.82175732 414.81257685 366.89348983 415.37439129 363.80859375 415.81640625 C363.74671875 416.72390625 363.68484375 417.63140625 363.62109375 418.56640625 C361.39798329 433.6104688 351.07605664 445.18264497 339.40625 454.10546875 C332.9044121 458.38788228 325.59622805 461.28543118 317.80859375 461.81640625 C317.65003906 462.56664062 317.49148438 463.316875 317.328125 464.08984375 C313.78252796 479.64345726 306.29405058 491.93209003 292.80859375 500.81640625 C277.54310507 509.00277414 260.50874056 512.04586357 243.55859375 507.19140625 C229.14615987 501.8125135 219.03233657 491.19192201 208.35925293 480.50750732 C207.46346637 479.61469189 206.56767982 478.72187645 205.64474821 477.80200601 C203.18748279 475.35271095 200.73326813 472.90037983 198.27961326 470.44746852 C195.62147609 467.79119938 192.96049882 465.13777768 190.29994202 462.4839325 C184.49770826 456.69520868 178.69918832 450.90277454 172.90149879 445.10949993 C169.27531186 441.48608635 165.6483927 437.86340632 162.02134705 434.24085236 C151.96020052 424.19188596 141.89999273 414.14198186 131.84323883 404.08861923 C131.2011988 403.44679876 130.55915876 402.80497829 129.89766297 402.14370872 C129.25418495 401.50044898 128.61070694 400.85718925 127.94772959 400.19443679 C126.64402831 398.89117896 125.34032548 397.58792269 124.03662109 396.28466797 C123.06662132 395.31500034 123.06662132 395.31500034 122.07702559 394.32574347 C111.5979437 383.85060992 101.11212296 373.38224999 90.62338227 362.91678867 C79.83026192 352.14742846 69.04282148 341.37240575 58.26099253 330.59174085 C52.21704798 324.54871012 46.17074363 318.5080846 40.1181488 312.47371674 C34.96549977 307.33653137 29.81810191 302.19415429 24.67729127 297.0451211 C22.05905019 294.42299642 19.43853017 291.80327017 16.8112812 289.19016838 C-8.17586541 264.32984962 -8.17586541 264.32984962 -16.00390625 249.81640625 C-16.37080566 249.14689941 -16.73770508 248.47739258 -17.11572266 247.78759766 C-26.18901601 230.86604613 -29.45311364 213.23164682 -29.18359375 194.2109375 C-29.16609011 191.98893676 -29.14918064 189.76693127 -29.1328125 187.54492188 C-29.10178906 184.07546685 -29.06610532 180.60625241 -29.02001953 177.13696289 C-28.9776683 173.76575714 -28.95424892 170.39483656 -28.93359375 167.0234375 C-28.91497284 165.98894974 -28.89635193 164.95446198 -28.87716675 163.8886261 C-28.85441838 157.49053016 -29.48610913 153.16058766 -33.63354492 148.03369141 C-34.12056885 147.56237793 -34.60759277 147.09106445 -35.109375 146.60546875 C-35.90698242 145.82236328 -35.90698242 145.82236328 -36.72070312 145.0234375 C-37.26791016 144.50136719 -37.81511719 143.97929687 -38.37890625 143.44140625 C-38.93771484 142.89613281 -39.49652344 142.35085937 -40.07226562 141.7890625 C-41.43852177 140.45783856 -42.81403182 139.13612315 -44.19140625 137.81640625 C-44.77148438 138.13867188 -45.3515625 138.4609375 -45.94921875 138.79296875 C-49.27910832 140.3128835 -52.64627675 140.56075728 -56.19140625 139.81640625 C-61.15068847 136.85579448 -65.06055655 133.25415162 -69.12890625 129.1796875 C-70.09364868 128.22137276 -70.09364868 128.22137276 -71.07788086 127.24369812 C-72.43173789 125.89556019 -73.78301427 124.54482622 -75.13183594 123.19165039 C-77.17649903 121.14383645 -79.23409786 119.10968842 -81.29296875 117.07617188 C-101.42484221 97.04949697 -101.42484221 97.04949697 -101.66040039 82.22070312 C-101.65000732 81.46853516 -101.63961426 80.71636719 -101.62890625 79.94140625 C-101.61915771 79.15056641 -101.60940918 78.35972656 -101.59936523 77.54492188 C-101.08365894 60.52486613 -88.45780791 50.92201204 -77.1640625 39.515625 C-76.65523466 39.00147348 -76.14640682 38.48732197 -75.62215996 37.9575901 C-72.93589492 35.24488368 -70.24615837 32.53566973 -67.55395508 29.82885742 C-65.34863202 27.61014452 -63.15083602 25.38436019 -60.95922852 23.15209961 C-58.28220921 20.42548101 -55.59285745 17.71161011 -52.89446831 15.00614357 C-51.8796408 13.98466452 -50.86902078 12.95898506 -49.86302376 11.92880821 C-36.58034892 -1.65516431 -18.30658908 -9.11603554 0 0 Z M-34.33886719 26.70507812 C-34.81445572 27.17716202 -35.29004425 27.64924591 -35.78004456 28.13563538 C-37.33365513 29.68052089 -38.87992581 31.23251373 -40.42578125 32.78515625 C-41.51071493 33.86874108 -42.59594522 34.952029 -43.68145752 36.03503418 C-45.94731523 38.29795352 -48.20954167 40.5644249 -50.46923828 42.83349609 C-53.36315489 45.73883377 -56.26599523 48.63506311 -59.17159653 51.52870941 C-61.41085058 53.76073338 -63.64531561 55.99750265 -65.87836456 58.23573303 C-66.94699652 59.30569688 -68.01710991 60.3741833 -69.08873749 61.44114685 C-70.58456344 62.93188573 -72.07381563 64.42889957 -73.56152344 65.92773438 C-74.40946472 66.77726685 -75.25740601 67.62679932 -76.13104248 68.5020752 C-79.40071582 72.17477933 -80.48128196 74.85951872 -80.50390625 79.75390625 C-80.52066406 80.58792969 -80.53742188 81.42195313 -80.5546875 82.28125 C-79.73861979 87.97617415 -75.59825707 91.68489413 -71.6484375 95.5546875 C-71.11997726 96.08031784 -70.59151703 96.60594818 -70.04704285 97.14750671 C-68.37066363 98.81275873 -66.68744036 100.47089117 -65.00390625 102.12890625 C-63.86086764 103.26190542 -62.71828456 104.39536434 -61.57617188 105.52929688 C-58.78649293 108.29701453 -55.99065752 111.05837173 -53.19140625 113.81640625 C-48.82370739 112.14197995 -45.99018348 108.88124772 -42.77050781 105.62255859 C-42.13594162 104.98828445 -41.50137543 104.35401031 -40.84757996 103.70051575 C-38.75428743 101.60583147 -36.66816545 99.50415523 -34.58203125 97.40234375 C-33.13086872 95.94745055 -31.67926358 94.49299869 -30.22723389 93.03897095 C-26.40879207 89.21289699 -22.59639476 85.38085463 -18.78521729 81.54754639 C-14.89429246 77.63615421 -10.99769197 73.7304254 -7.1015625 69.82421875 C0.54072774 62.16048598 8.17664549 54.4904372 15.80859375 46.81640625 C14.00053869 42.91831125 11.49234307 40.21030253 8.46875 37.2109375 C7.94598984 36.68626389 7.42322968 36.16159027 6.8846283 35.62101746 C5.78174433 34.51677616 4.67634525 33.41504188 3.56860352 32.31567383 C1.87345175 30.63124933 0.18925267 28.93640112 -1.49414062 27.24023438 C-2.56836955 26.16732671 -3.64321852 25.09503942 -4.71875 24.0234375 C-5.47356911 23.2625457 -5.47356911 23.2625457 -6.24363708 22.48628235 C-10.0472289 18.73329891 -12.72484098 17.65798035 -18.00390625 17.50390625 C-18.83535156 17.46652344 -19.66679688 17.42914062 -20.5234375 17.390625 C-26.23638623 18.30235474 -30.37753552 22.75115222 -34.33886719 26.70507812 Z M20.59396362 70.79052734 C19.67463043 71.71430176 18.75529724 72.63807617 17.80810547 73.58984375 C17.04688889 74.35062225 17.04688889 74.35062225 16.27029419 75.12677002 C14.58817499 76.81028648 12.91325678 78.50078462 11.23828125 80.19140625 C10.0757226 81.35769362 8.91272263 82.52354123 7.7492981 83.68896484 C4.68377929 86.76213122 1.62431286 89.84125579 -1.43395996 92.92163086 C-4.55392435 96.06202949 -7.67953628 99.19679574 -10.8046875 102.33203125 C-16.93915657 108.48797005 -23.06724745 114.65021041 -29.19140625 120.81640625 C-27.84051489 123.62962518 -26.65018224 125.56694873 -24.328125 127.6640625 C-23.77286133 128.18170166 -23.21759766 128.69934082 -22.64550781 129.23266602 C-21.77104004 130.04755493 -21.77104004 130.04755493 -20.87890625 130.87890625 C-13.98616196 137.51067594 -8.51494383 145.24830079 -8.09133911 155.15715027 C-8.10260834 156.02076675 -8.11387756 156.88438324 -8.12548828 157.77416992 C-8.14012619 159.25302925 -8.14012619 159.25302925 -8.15505981 160.76176453 C-8.17691849 162.35695671 -8.17691849 162.35695671 -8.19921875 163.984375 C-8.21676252 166.26366721 -8.23366809 168.54296441 -8.25 170.82226562 C-8.28069999 174.39394182 -8.31590019 177.96536305 -8.36279297 181.53686523 C-8.77938937 215.05415238 -2.25534465 238.9777909 21.3125 263.2734375 C22.47599165 264.45627231 23.64132247 265.63730118 24.80859375 266.81640625 C25.3691748 267.38536621 25.92975586 267.95432617 26.50732422 268.54052734 C29.58371868 271.65719594 32.68336671 274.74858134 35.80859375 277.81640625 C47.45534954 273.02936987 62.58375665 256.73750386 68.44775391 245.74316406 C70.26209873 240.64467006 70.91381354 235.50466411 71.4609375 230.14306641 C73.18560845 218.60085144 80.89530649 207.85096095 87.80859375 198.81640625 C88.31003906 198.14222656 88.81148438 197.46804687 89.328125 196.7734375 C100.45776933 182.7571419 119.78638833 170.63060978 137.78588867 168.19140625 C150.9471786 166.3037248 157.61994963 159.59645985 166.37109375 150.06640625 C167.68761676 148.68450323 169.00726466 147.30557026 170.33007812 145.9296875 C173.52656652 142.59166863 176.67835353 139.21657738 179.80859375 135.81640625 C178.36458008 132.51290183 176.56542589 130.31603357 174.02734375 127.76953125 C173.27283936 127.01075684 172.51833496 126.25198242 171.7409668 125.47021484 C170.93828369 124.67695801 170.13560059 123.88370117 169.30859375 123.06640625 C168.4885083 122.25381348 167.66842285 121.4412207 166.82348633 120.60400391 C144.76246634 98.93423752 121.81516541 89.39655214 91.0296936 89.65693665 C87.64323649 89.69960419 84.25726779 89.75539847 80.87109375 89.81640625 C76.3619988 89.89676068 71.85329694 89.95636435 67.34375 90.00390625 C65.82782005 90.04124878 65.82782005 90.04124878 64.28126526 90.0793457 C53.75544497 90.18738786 44.00733175 87.70453629 36.22998047 80.31689453 C33.85329609 77.97092875 31.50473096 75.60279199 29.19995117 73.18603516 C27.76990168 71.69635574 26.29273764 70.25219984 24.80859375 68.81640625 C22.56295757 68.59460282 22.56295757 68.59460282 20.59396362 70.79052734 Z M286.828125 278.640625 C277.29157027 288.26325125 272.0738775 295.83768623 271.06494141 309.62841797 C269.36763256 324.11535306 257.6280715 337.82733475 247.80859375 347.81640625 C246.79732422 348.84701172 246.79732422 348.84701172 245.765625 349.8984375 C235.60906201 359.5595584 220.84889697 368.67483531 206.78491211 370.36889648 C192.85948793 372.21684825 185.91517794 378.9770916 176.68359375 389.06640625 C175.32369705 390.49671516 173.96042984 391.92382732 172.59375 393.34765625 C169.29210089 396.80169704 166.03876605 400.29548649 162.80859375 403.81640625 C166.91274878 408.70092159 171.16503802 413.32994839 175.66503906 417.84985352 C176.32284866 418.51423431 176.98065826 419.17861511 177.65840149 419.86312866 C179.81495907 422.03923887 181.97537599 424.21145545 184.13671875 426.3828125 C184.87998161 427.13015089 185.62324448 427.87748928 186.38903046 428.64747429 C190.32035051 432.59957373 194.25488216 436.54844456 198.19189453 440.49487305 C202.23955095 444.55360391 206.27538969 448.62387878 210.30870438 452.69685459 C213.43000867 455.84438491 216.56024392 458.9829194 219.69289398 462.11915398 C221.18407706 463.61518386 222.67190281 465.11456855 224.15616608 466.61746407 C239.21197796 482.32379857 239.21197796 482.32379857 259.51708984 488.19750977 C271.44183255 488.16185818 278.80797277 485.66553847 287.53125 477.328125 C293.45215146 470.82542968 293.45215146 470.82542968 295.8515625 462.6640625 C294.16301579 459.67274192 291.64835175 459.50084784 288.43359375 458.56640625 C279.3237107 455.66621241 271.33960503 450.80703203 265.80859375 442.81640625 C265.04307688 440.02886897 265.1733025 437.62983895 265.80859375 434.81640625 C267.78409869 431.75755989 269.22925454 430.28799251 272.7578125 429.234375 C279.38023152 428.53289794 282.98806796 431.84418574 287.9921875 435.76953125 C295.73198291 441.3945698 304.39787504 443.04495961 313.80859375 441.81640625 C323.39429763 439.3636674 331.64826814 434.65682066 337.80859375 426.81640625 C343.11060535 417.19373224 345.66299308 407.81681479 343.125 396.8671875 C341.02501032 390.61950035 337.9757822 385.8646574 333.80859375 380.81640625 C331.12170327 376.78607053 331.0210687 373.54984627 331.80859375 368.81640625 C333.80859375 365.75390625 333.80859375 365.75390625 336.80859375 363.81640625 C340.78151756 363.11153267 343.07687014 362.89677573 346.6328125 364.78515625 C354.86274952 371.14717498 359.22717824 380.66201577 361.7890625 390.48046875 C362.57373894 392.92806288 362.57373894 392.92806288 364.62109375 393.80859375 C370.51886631 393.82965722 376.45930216 388.39963535 380.62109375 384.56640625 C388.37226068 376.35713253 390.28839677 366.77377693 390.08203125 355.90234375 C389.4849345 343.00860108 380.12113503 333.81040095 371.42041016 325.18530273 C370.3679007 324.12994576 370.3679007 324.12994576 369.29412842 323.05326843 C367.00430817 320.75978266 364.70743926 318.47350859 362.41015625 316.1875 C360.80793352 314.58647076 359.2060818 312.98507016 357.60458374 311.38331604 C354.26405439 308.04434382 350.92021269 304.70873815 347.57373047 301.37573242 C343.27425694 297.09335116 338.98149959 292.80431254 334.69094276 288.51299953 C331.39199232 285.21432008 328.09044981 281.91824566 324.78800583 278.62306404 C323.20288274 277.04113109 321.61837161 275.4585847 320.03447342 273.87542534 C317.83229515 271.67540114 315.62686558 269.47869238 313.42041016 267.28295898 C312.76174957 266.62384521 312.10308899 265.96473145 311.42446899 265.28564453 C302.98694264 256.90838826 293.89242657 271.68124692 286.828125 278.640625 Z " fill="#000000" transform="translate(101.19140625,3.18359375)"/>
<path d="M0 0 C3.25908021 2.84124941 3.91758009 4.54294411 4.6875 8.8125 C4.05797061 18.66780564 -10.72266818 28.86682566 -17.39453125 35.52734375 C-18.79235689 36.92584388 -20.19003413 38.32449235 -21.58757019 39.72328186 C-24.50166488 42.63884378 -27.41754314 45.55260674 -30.3347168 48.46508789 C-34.07857122 52.2032137 -37.81787543 55.94585408 -41.55588245 59.68982601 C-44.43388218 62.57143063 -47.31424859 65.45066005 -50.19534874 68.32916451 C-51.57603088 69.70917882 -52.95596851 71.08993841 -54.33515358 72.4714489 C-56.25464179 74.39346585 -58.17728721 76.31226672 -60.10083008 78.23022461 C-60.67173874 78.8031575 -61.2426474 79.37609039 -61.83085632 79.96638489 C-66.80077388 84.90949237 -66.80077388 84.90949237 -71.3125 85.25 C-75.22632394 84.984656 -76.93192479 84.36680088 -80 82 C-82.75467642 77.86798537 -82.88627974 74.8339775 -82 70 C-80.90724182 68.28182983 -80.90724182 68.28182983 -79.34204102 66.59130859 C-78.70259552 65.89890076 -78.06315002 65.20649292 -77.40432739 64.49310303 C-71.97011234 58.85823898 -66.48605216 53.27623072 -60.96484375 47.7265625 C-60.2947333 47.05237652 -59.62462284 46.37819054 -58.93420601 45.68357468 C-55.3965004 42.12513692 -51.85562046 38.56989219 -48.31225586 35.01708984 C-44.65996763 31.35367624 -41.01951969 27.67872137 -37.38149166 24.00115395 C-34.57169425 21.16523336 -31.75306771 18.33821437 -28.93197823 15.51353073 C-27.58542506 14.16211201 -26.24224721 12.80732119 -24.90257072 11.44908524 C-23.03150046 9.55368378 -21.14821433 7.67129033 -19.26147461 5.79150391 C-18.71429779 5.23151703 -18.16712097 4.67153015 -17.60336304 4.09457397 C-11.97134559 -1.46220879 -7.43164506 -3.1653303 0 0 Z " fill="#000000" transform="translate(327,245)"/>
<path d="M0 0 C3.25908021 2.84124941 3.91758009 4.54294411 4.6875 8.8125 C3.86646586 21.75760806 -21.18267589 39.62475125 -29.95019531 48.46508789 C-32.90716417 51.44892121 -35.85270253 54.44339578 -38.7890625 57.44750977 C-42.35210537 61.09250634 -45.93441064 64.71748194 -49.53120804 68.32916451 C-50.89283034 69.70301305 -52.24756252 71.08372739 -53.59504318 72.4714489 C-55.48038768 74.41030525 -57.38950598 76.32237453 -59.30615234 78.23022461 C-59.85189407 78.8031575 -60.3976358 79.37609039 -60.95991516 79.96638489 C-64.73962941 83.65775648 -67.7194789 84.71385526 -72.97971535 85.10616398 C-75.9948787 84.9477201 -77.72564379 83.92975679 -80 82 C-82.75467642 77.86798537 -82.88627974 74.8339775 -82 70 C-80.90724182 68.28182983 -80.90724182 68.28182983 -79.34204102 66.59130859 C-78.70259552 65.89890076 -78.06315002 65.20649292 -77.40432739 64.49310303 C-71.97011234 58.85823898 -66.48605216 53.27623072 -60.96484375 47.7265625 C-60.2947333 47.05237652 -59.62462284 46.37819054 -58.93420601 45.68357468 C-55.3965004 42.12513692 -51.85562046 38.56989219 -48.31225586 35.01708984 C-44.65996763 31.35367624 -41.01951969 27.67872137 -37.38149166 24.00115395 C-34.57169425 21.16523336 -31.75306771 18.33821437 -28.93197823 15.51353073 C-27.58542506 14.16211201 -26.24224721 12.80732119 -24.90257072 11.44908524 C-23.03150046 9.55368378 -21.14821433 7.67129033 -19.26147461 5.79150391 C-18.71429779 5.23151703 -18.16712097 4.67153015 -17.60336304 4.09457397 C-11.97134559 -1.46220879 -7.43164506 -3.1653303 0 0 Z " fill="#000000" transform="translate(293,211)"/>
<path d="M0 0 C2.73201072 3.00521179 3.83392966 5.00357794 4.5 9 C3.86619108 12.80285351 2.37421663 14.99731426 0 18 C-3.45739557 19.72869779 -7.21975568 19.48966895 -11 19 C-13.87029869 17.20606332 -15.49131638 16.01736724 -17 13 C-17.46776468 8.32235317 -17.72969391 5.3373883 -14.75 1.5625 C-10.06554911 -2.80255651 -5.69249223 -2.55462254 0 0 Z " fill="#000000" transform="translate(354,181)"/>
</svg>
