<?xml version="1.0" encoding="UTF-8"?>
<svg version="1.1" xmlns="http://www.w3.org/2000/svg" width="512" height="512">
<path d="M0 0 C2.75727826 2.08933294 5.40781647 4.25386965 8.015625 6.52734375 C8.65628906 6.18960937 9.29695313 5.851875 9.95703125 5.50390625 C10.82199219 5.05789062 11.68695313 4.611875 12.578125 4.15234375 C13.42503906 3.71148437 14.27195312 3.270625 15.14453125 2.81640625 C25.17222503 -1.68582361 36.80598214 -2.07710049 47.328125 1.02734375 C59.6352275 5.78274118 67.35679279 13.91357764 73.015625 25.52734375 C73.94761719 25.35976563 74.87960937 25.1921875 75.83984375 25.01953125 C89.87951193 22.77659134 102.2350898 23.90021764 114.140625 32.27734375 C123.06799318 39.412139 129.12026141 48.24341565 130.828125 59.77734375 C130.9209375 61.13859375 130.9209375 61.13859375 131.015625 62.52734375 C131.59828125 62.54152344 132.1809375 62.55570312 132.78125 62.5703125 C144.54599528 63.25473951 154.7594354 68.12831349 163.015625 76.52734375 C170.80780127 86.3484263 173.33689006 96.21649614 174.015625 108.52734375 C174.62148438 108.72328125 175.22734375 108.91921875 175.8515625 109.12109375 C186.94152452 113.07935712 195.44026469 120.08648333 201.015625 130.52734375 C206.77301401 143.95555669 206.21418233 156.03765666 201.015625 169.52734375 C200.37299805 170.87242844 199.71615363 172.21148591 199.015625 173.52734375 C199.6034375 173.77355469 200.19125 174.01976562 200.796875 174.2734375 C207.98920009 178.33811418 212.37448395 187.70744824 214.54614258 195.40869141 C217.07034542 206.79976381 215.50916342 219.18752413 209.44921875 229.0859375 C208.42485998 230.6286465 207.37320147 232.15387135 206.28515625 233.65234375 C204.83947495 235.60573625 204.83947495 235.60573625 204.015625 238.52734375 C205.32307207 240.73314375 205.32307207 240.73314375 207.203125 243.02734375 C214.98564305 253.86060887 216.3898283 264.48293689 215.015625 277.52734375 C212.76396573 289.49178174 205.69338371 298.40807297 196.015625 305.52734375 C188.55992788 310.09788604 180.95508352 311.91716269 172.265625 311.90234375 C171.48010254 311.90363281 170.69458008 311.90492188 169.88525391 311.90625 C163.37651318 311.7886141 157.88284424 310.4221832 152.015625 307.52734375 C152.05042969 308.26597656 152.08523438 309.00460937 152.12109375 309.765625 C152.31964903 317.20672068 151.35033007 323.46764031 149.015625 330.52734375 C149.74007813 330.62917969 150.46453125 330.73101562 151.2109375 330.8359375 C159.23592733 332.81424279 166.45063809 339.83667591 171.015625 346.52734375 C177.16346541 358.02460373 178.91165139 369.9444152 176.3671875 382.8046875 C172.46262857 394.43493356 164.86571799 403.58664103 154.078125 409.27734375 C146.09446993 412.98872899 139.54899797 413.78209656 130.82568359 413.36645508 C127.51421568 413.26445832 125.32394184 413.36267837 122.37521362 414.93753052 C118.1010458 416.96013784 114.11181227 417.53484737 109.45751953 418.18701172 C108.45980404 418.33535084 107.46208855 418.48368996 106.43413925 418.6365242 C102.96531457 419.14932257 99.49444588 419.64674154 96.0234375 420.14453125 C93.42599453 420.52481458 90.82868033 420.90590931 88.23147583 421.28781128 C81.25582191 422.31119057 74.27831954 423.32152786 67.30038893 424.32925069 C60.36298856 425.33152129 53.42641056 426.3393752 46.4901123 427.34924316 C15.94451961 431.79605454 -14.60423688 436.2207752 -45.15450463 440.63534364 C-55.13834603 442.07803533 -65.12198379 443.52212901 -75.10546875 444.96728516 C-88.17483415 446.85913513 -101.24437207 448.74978956 -114.31405258 450.63946152 C-119.21300875 451.34779144 -124.11190478 452.05653489 -129.010746 452.76565933 C-141.37040456 454.55444557 -153.73074697 456.3382939 -166.09300745 458.10901868 C-171.73619338 458.9173382 -177.3789808 459.72827768 -183.02108002 460.54415131 C-188.82493573 461.38312075 -194.62977567 462.21494816 -200.43535781 463.04188323 C-202.61271809 463.35317213 -204.78974091 463.66683223 -206.96638894 463.98306298 C-209.96838551 464.41876518 -212.97151602 464.84564294 -215.97506714 465.27047729 C-216.84493216 465.3987852 -217.71479719 465.5270931 -218.61102176 465.65928912 C-223.7140108 466.37005436 -228.60616605 466.61216536 -233.75813973 466.42504609 C-236.14420676 466.53468817 -237.80382586 467.0835109 -239.984375 468.02734375 C-249.84237502 471.6868855 -262.75567563 470.638175 -272.375 466.8515625 C-282.51599474 461.70515948 -290.74360156 453.09912968 -294.984375 442.52734375 C-295.34144531 441.64691406 -295.69851563 440.76648438 -296.06640625 439.859375 C-298.94647737 429.40532962 -298.32880622 416.01370916 -292.984375 406.52734375 C-289.4568619 401.04090431 -285.68971551 396.0541334 -280.984375 391.52734375 C-281.31050781 390.99367188 -281.63664062 390.46 -281.97265625 389.91015625 C-288.62424949 378.56909167 -290.95554021 367.37143667 -288.328125 354.25 C-285.31491144 344.15833216 -279.58141438 335.67456716 -270.984375 329.52734375 C-270.324375 329.19734375 -269.664375 328.86734375 -268.984375 328.52734375 C-269.12875 327.99109375 -269.273125 327.45484375 -269.421875 326.90234375 C-272.75034499 312.8488038 -271.94574454 299.97807444 -264.734375 287.33984375 C-258.59772629 278.27391862 -250.30133389 271.45351061 -239.4375 268.9375 C-237.234375 268.65234375 -237.234375 268.65234375 -233.984375 268.52734375 C-233.89800781 267.77710938 -233.81164062 267.026875 -233.72265625 266.25390625 C-232.10802769 254.49230008 -227.83573145 245.59088313 -218.984375 237.52734375 C-215.78998126 235.2013782 -212.51241939 233.29991532 -208.984375 231.52734375 C-208.36175781 231.19863281 -207.73914063 230.86992187 -207.09765625 230.53125 C-200.54206282 227.55919137 -193.06530608 227.79472266 -185.984375 227.52734375 C-185.46037109 226.26277344 -185.46037109 226.26277344 -184.92578125 224.97265625 C-184.47074219 223.87695312 -184.01570313 222.78125 -183.546875 221.65234375 C-183.09441406 220.56179687 -182.64195312 219.47125 -182.17578125 218.34765625 C-181.48894037 216.72175751 -180.77371613 215.10602601 -179.984375 213.52734375 C-181.06976563 213.2128125 -182.15515625 212.89828125 -183.2734375 212.57421875 C-184.71890777 212.1424549 -186.16421157 211.7101335 -187.609375 211.27734375 C-188.67865234 210.96990234 -188.67865234 210.96990234 -189.76953125 210.65625 C-193.36689788 209.567139 -195.97431224 208.53421099 -199.12109375 206.38671875 C-202.43024092 204.23780462 -204.27110981 204.06610912 -208.171875 204.02734375 C-220.87254746 203.37639812 -229.69284699 198.29162142 -238.234375 189.15234375 C-246.95224548 178.96440099 -248.87351796 167.73538854 -248.1796875 154.61621094 C-247.37103901 145.9677153 -243.69596491 138.91176493 -237.984375 132.52734375 C-237.22125 131.66109375 -236.458125 130.79484375 -235.671875 129.90234375 C-229.2798243 124.25355476 -223.09018125 121.02498649 -214.984375 118.52734375 C-215.03078125 117.295 -215.0771875 116.06265625 -215.125 114.79296875 C-215.48566326 101.18825488 -214.44054241 90.05445061 -204.984375 79.52734375 C-204.19740234 78.60308594 -204.19740234 78.60308594 -203.39453125 77.66015625 C-197.40494124 71.09274697 -189.59465627 67.42160563 -180.984375 65.52734375 C-179.664375 65.52734375 -178.344375 65.52734375 -176.984375 65.52734375 C-176.87222656 64.32851562 -176.87222656 64.32851562 -176.7578125 63.10546875 C-175.3414889 51.275001 -171.091306 40.55653143 -161.984375 32.52734375 C-152.00680218 25.35851483 -141.3201464 21.63585103 -128.984375 22.52734375 C-126.24820566 23.04916709 -123.66414406 23.74777457 -120.984375 24.52734375 C-120.778125 23.84671875 -120.571875 23.16609375 -120.359375 22.46484375 C-115.98331674 13.11599202 -107.06976095 7.36820652 -97.671875 3.65234375 C-84.50652587 -0.36420344 -72.72294327 1.92730521 -59.984375 6.52734375 C-59.15292969 5.40199219 -59.15292969 5.40199219 -58.3046875 4.25390625 C-43.54186772 -13.09364966 -17.34511495 -12.26012622 0 0 Z M-47.80078125 19.640625 C-51.47076913 25.49080369 -51.984375 29.47078149 -51.984375 36.52734375 C-30.699375 35.53734375 -30.699375 35.53734375 -8.984375 34.52734375 C-7.994375 31.22734375 -7.004375 27.92734375 -5.984375 24.52734375 C-5.654375 23.53734375 -5.324375 22.54734375 -4.984375 21.52734375 C-8.11456799 16.19725988 -12.72246315 12.33553906 -18.46875 10.15625 C-29.81899007 7.31868998 -40.57373019 10.20246483 -47.80078125 19.640625 Z M14.015625 25.52734375 C12.075077 28.06579032 10.23129847 30.56341606 9.015625 33.52734375 C9.42955073 35.62376397 9.42955073 35.62376397 10.015625 37.52734375 C10.60762695 37.64215088 11.19962891 37.75695801 11.80957031 37.87524414 C25.33655256 40.54284844 38.20540696 43.92750074 51.09057617 48.85058594 C53.04621495 49.53809776 54.99794007 50.05629765 57.015625 50.52734375 C59.0592692 44.39641114 58.51168181 38.35162188 55.9921875 32.44140625 C52.48516363 25.56763946 48.39637322 21.51859294 41.265625 18.27734375 C31.06724885 15.92387233 21.5623437 17.98062505 14.015625 25.52734375 Z M-101.984375 27.52734375 C-106.24185353 33.39805489 -108.12923827 37.79009307 -108.109375 45.08984375 C-108.11195313 46.03988281 -108.11453125 46.98992187 -108.1171875 47.96875 C-108.09208494 50.64858755 -108.09208494 50.64858755 -106.984375 53.52734375 C-103.65554541 52.93880726 -100.69530001 52.12223606 -97.578125 50.8203125 C-96.34690918 50.31371094 -96.34690918 50.31371094 -95.09082031 49.796875 C-94.23069336 49.43980469 -93.37056641 49.08273438 -92.484375 48.71484375 C-84.74376689 45.5519539 -77.04907415 42.7642676 -68.984375 40.52734375 C-68.87644663 37.9220727 -68.79712622 35.32126064 -68.734375 32.71484375 C-68.70085937 31.97685547 -68.66734375 31.23886719 -68.6328125 30.47851562 C-68.49781814 26.10210536 -68.49781814 26.10210536 -70.828125 22.58984375 C-81.4917165 17.3353204 -93.47941621 18.77938614 -101.984375 27.52734375 Z M-153.984375 50.52734375 C-157.83829136 55.89609428 -159.40912446 61.94372716 -158.984375 68.52734375 C-157.07945855 76.47619418 -157.07945855 76.47619418 -151.984375 82.52734375 C-148.13896096 82.39969515 -145.89608419 79.96677307 -143.109375 77.52734375 C-136.7941975 72.20345257 -130.00237825 67.86108882 -122.984375 63.52734375 C-123.18353516 62.65335938 -123.18353516 62.65335938 -123.38671875 61.76171875 C-124.83531376 55.03685433 -125.53648157 48.38718517 -125.984375 41.52734375 C-137.0701762 38.54547965 -146.50850439 42.10430401 -153.984375 50.52734375 Z M76.015625 45.52734375 C74.61232232 49.80201961 73.7370863 54.09098962 73.015625 58.52734375 C73.51263916 58.82801758 74.00965332 59.12869141 74.52172852 59.43847656 C86.01167222 66.43155098 96.730354 73.85635295 107.015625 82.52734375 C111.48902953 78.44238611 113.15852121 73.08650589 113.453125 67.15234375 C113.10129824 59.29036887 110.35549952 53.35215726 104.578125 48.02734375 C97.57301359 42.08213615 83.34722772 38.38867795 76.015625 45.52734375 Z M-128.984375 88.52734375 C-129.86609375 89.18605469 -130.7478125 89.84476563 -131.65625 90.5234375 C-159.68885472 112.31241662 -188.7025936 148.49645868 -193.421875 184.90234375 C-192.82813419 188.46478862 -191.8158094 189.26914453 -188.984375 191.52734375 C-185.99428052 192.82118108 -182.92079819 193.73767065 -179.796875 194.65234375 C-178.98412109 194.90371094 -178.17136719 195.15507812 -177.33398438 195.4140625 C-173.29085922 196.64276084 -169.22182745 197.77261416 -165.12109375 198.79296875 C-164.0705481 199.0564209 -164.0705481 199.0564209 -162.9987793 199.32519531 C-160.6088393 199.56502931 -159.18307431 199.07332021 -156.984375 198.15234375 C-146.09454542 193.89939805 -133.39435424 196.03440473 -122.984375 200.52734375 C-122.67886719 199.97046875 -122.37335938 199.41359375 -122.05859375 198.83984375 C-116.61698165 189.76538076 -108.30204882 183.39916432 -98.19921875 180.15234375 C-86.15100676 177.81004251 -73.98334507 178.52035485 -63.42578125 185.12890625 C-61.88114063 186.1718476 -60.35565594 187.24426011 -58.859375 188.35546875 C-56.92889074 189.79234322 -56.92889074 189.79234322 -53.984375 189.52734375 C-52.25482979 188.34172858 -52.25482979 188.34172858 -50.484375 186.77734375 C-40.15841044 178.92588961 -28.5460429 178.07217755 -15.984375 179.52734375 C-5.22611762 181.85103797 3.44344563 187.97761484 9.640625 197.08984375 C10.094375 197.89421875 10.548125 198.69859375 11.015625 199.52734375 C12.70751953 199.04394531 12.70751953 199.04394531 14.43359375 198.55078125 C27.018159 195.42332166 40.15765511 196.62508609 51.46484375 202.8828125 C60.31720119 208.34054692 64.76694025 215.18399719 69.015625 224.52734375 C69.74265625 224.49253906 70.4696875 224.45773438 71.21875 224.421875 C84.95961921 224.05192852 96.28277148 227.35743266 106.703125 236.52734375 C116.33823142 247.00723439 118.25709427 258.8737906 119.015625 272.52734375 C119.70527344 272.73488281 120.39492188 272.94242188 121.10546875 273.15625 C127.3683576 275.20951534 132.01547435 277.68442148 137.06640625 281.91015625 C139.24746609 283.71969287 141.53239576 285.16557288 144.015625 286.52734375 C148.17602446 284.61580886 149.62803707 282.76539717 151.31274414 278.55444336 C152.53049331 275.04246998 153.333318 271.47782231 154.078125 267.83984375 C154.24731445 267.02112793 154.41650391 266.20241211 154.59082031 265.35888672 C162.66840851 224.4028687 156.06623739 182.12173258 136.015625 145.52734375 C135.4278125 144.44839844 134.84 143.36945313 134.234375 142.2578125 C130.30795677 135.30626749 125.87652861 128.85568996 121.015625 122.52734375 C120.05269531 121.25503906 120.05269531 121.25503906 119.0703125 119.95703125 C90.07538418 83.02432788 47.10984413 59.47045518 0.69946289 53.35180664 C-45.14656107 48.12692777 -92.35370779 60.22601167 -128.984375 88.52734375 Z M129.015625 80.52734375 C127.84120965 82.62750998 126.67598488 84.7319313 125.515625 86.83984375 C125.18175781 87.43474609 124.84789062 88.02964844 124.50390625 88.64257812 C122.94737386 91.48563219 122.015625 93.23395363 122.015625 96.52734375 C123.75306984 98.71556895 125.51652497 100.77450902 127.390625 102.83984375 C132.30946119 108.37729532 136.72214133 114.07742224 140.80419922 120.2590332 C141.8043221 121.73210703 142.90258083 123.13762257 144.015625 124.52734375 C145.005625 124.52734375 145.995625 124.52734375 147.015625 124.52734375 C152.26140841 119.15041575 155.13368219 113.78702699 155.453125 106.15234375 C155.24432277 99.24288801 153.11987202 94.09920121 148.765625 88.77734375 C142.34510683 83.52419252 137.45040236 80.74211817 129.015625 80.52734375 Z M-173.984375 82.52734375 C-182.56089552 84.64990315 -188.94832119 87.02691832 -193.859375 94.65234375 C-197.61427656 101.04313647 -197.61227518 107.25058274 -196.984375 114.52734375 C-195.51684918 119.3785431 -192.96890115 123.33972283 -188.984375 126.52734375 C-188.324375 126.52734375 -187.664375 126.52734375 -186.984375 126.52734375 C-185.43853136 124.38489412 -185.43853136 124.38489412 -183.859375 121.65234375 C-178.17928882 112.47953378 -171.22270583 104.49720802 -163.984375 96.52734375 C-167.13859767 91.70138306 -170.27356617 86.95176967 -173.984375 82.52734375 Z M168.015625 126.52734375 C166.34195657 128.32297866 166.34195657 128.32297866 164.765625 130.65234375 C161.69438778 134.99595068 158.11027638 138.18847415 154.015625 141.52734375 C154.53511719 142.73648438 155.05460937 143.945625 155.58984375 145.19140625 C159.72320693 154.87327398 163.6323202 164.55635411 167.015625 174.52734375 C173.91286059 173.3409727 178.35134465 169.78780302 182.69140625 164.4453125 C186.46136422 158.9849899 187.94034335 153.10311872 187.015625 146.52734375 C185.43435195 139.78057876 181.74921125 133.3493325 176.17578125 129.13671875 C173.32318698 127.42395602 171.37301197 126.52734375 168.015625 126.52734375 Z M-222.984375 142.52734375 C-228.56612318 148.88433473 -230.54307833 155.20956574 -230.359375 163.6484375 C-229.38562228 171.12401827 -225.54267311 176.75354571 -219.73046875 181.37109375 C-216.67042533 183.39743122 -214.71355972 184.52734375 -210.984375 184.52734375 C-210.87915527 183.92220947 -210.77393555 183.3170752 -210.66552734 182.69360352 C-209.49698018 176.38793859 -207.78228006 170.49184551 -205.609375 164.46484375 C-205.31804687 163.63146484 -205.02671875 162.79808594 -204.7265625 161.93945312 C-202.96680019 156.98047382 -200.99126187 152.24427223 -198.63427734 147.53735352 C-197.84760753 145.10435105 -198.10109255 143.89873788 -198.984375 141.52734375 C-200.25773785 139.78351444 -200.25773785 139.78351444 -201.859375 138.27734375 C-202.37242187 137.7565625 -202.88546875 137.23578125 -203.4140625 136.69921875 C-208.6510807 132.79099621 -218.85378282 139.14776833 -222.984375 142.52734375 Z M180.015625 188.40234375 C179.355625 188.75039062 178.695625 189.0984375 178.015625 189.45703125 C177.355625 189.81023437 176.695625 190.1634375 176.015625 190.52734375 C174.68414607 191.1977064 173.351335 191.86545174 172.015625 192.52734375 C172.13679688 193.58308594 172.25796875 194.63882813 172.3828125 195.7265625 C173.73641663 207.64753889 174.90818813 219.58116308 176.015625 231.52734375 C183.91366057 229.15252128 189.61871453 226.51266869 194.40234375 219.4921875 C197.53334469 213.43891902 198.03342349 207.21697655 197.015625 200.52734375 C195.20038456 195.29686833 192.63385954 189.80480052 188.015625 186.52734375 C184.20777818 186.52734375 183.16924371 186.71466499 180.015625 188.40234375 Z M-99.984375 200.52734375 C-100.87125 201.08421875 -101.758125 201.64109375 -102.671875 202.21484375 C-107.29450795 206.8374767 -110.77986226 213.04442447 -111.08203125 219.66796875 C-111.07042969 220.3640625 -111.05882812 221.06015625 -111.046875 221.77734375 C-111.02625 223.01484375 -111.005625 224.25234375 -110.984375 225.52734375 C-106.11824048 225.03079941 -101.44955871 224.20365434 -96.671875 223.15234375 C-84.91271739 220.72147919 -72.91836713 219.74063945 -60.984375 218.52734375 C-62.24110554 210.35511591 -65.72623828 204.84463929 -72.25 199.71484375 C-80.53033507 194.04542515 -91.92100466 195.12036411 -99.984375 200.52734375 Z M-44.984375 205.52734375 C-45.1582771 209.13619571 -45.1582771 209.13619571 -44.296875 212.83984375 C-44.06613281 214.09410156 -43.83539063 215.34835938 -43.59765625 216.640625 C-43.39527344 217.59324219 -43.19289062 218.54585937 -42.984375 219.52734375 C-42.25959961 219.63280518 -41.53482422 219.7382666 -40.78808594 219.84692383 C-37.43590327 220.33833909 -34.08516829 220.83904584 -30.734375 221.33984375 C-29.59484375 221.50548828 -28.4553125 221.67113281 -27.28125 221.84179688 C-20.56874923 222.85248591 -14.06490558 224.15208037 -7.51660156 225.94799805 C-4.76744261 226.67602802 -4.76744261 226.67602802 -0.984375 226.52734375 C0.71308735 219.42886482 -0.77581698 213.69745001 -4.171875 207.28515625 C-7.89418763 201.6805378 -12.54440994 198.44431552 -18.984375 196.52734375 C-29.58754792 195.08897816 -38.15245835 196.94273644 -44.984375 205.52734375 Z M-163.421875 222.27734375 C-167.92316852 229.10601062 -169.58512604 235.15448636 -168.4453125 243.28515625 C-167.91605241 245.85969262 -167.16084788 248.17439799 -165.984375 250.52734375 C-161.59335291 248.9405308 -157.68573644 246.68851038 -153.671875 244.33984375 C-147.30242302 240.64563614 -140.8568943 237.56213028 -133.94995117 234.99926758 C-131.78265161 234.18532173 -131.78265161 234.18532173 -128.984375 232.52734375 C-127.56923646 229.06367805 -127.98153056 225.88438074 -128.421875 222.21484375 C-128.57462891 220.89033203 -128.57462891 220.89033203 -128.73046875 219.5390625 C-128.81425781 218.87519531 -128.89804688 218.21132812 -128.984375 217.52734375 C-140.69466335 210.90334226 -154.49044075 211.30506581 -163.421875 222.27734375 Z M17.015625 217.52734375 C16.38240597 220.51208003 16.13019849 222.73025575 16.140625 225.71484375 C16.12 226.46443359 16.099375 227.21402344 16.078125 227.98632812 C16.03107982 229.83285162 16.01987613 231.68022594 16.015625 233.52734375 C16.72058105 233.85943848 17.42553711 234.1915332 18.15185547 234.53369141 C21.40066682 236.06789667 24.64563943 237.61006409 27.890625 239.15234375 C28.99921875 239.67441406 30.1078125 240.19648438 31.25 240.734375 C38.07848537 243.98794744 44.61642092 247.49231521 51.015625 251.52734375 C54.1524969 244.33867897 55.35811009 238.09805731 52.953125 230.46484375 C50.1246294 223.84299191 45.03336545 218.06761055 38.390625 215.1484375 C31.35490069 213.30850302 23.0078015 213.05083542 17.015625 217.52734375 Z M-178.984375 284.52734375 C-180.39509344 285.7426163 -181.81131219 286.9515498 -183.234375 288.15234375 C-212.74133027 313.8524681 -232.1420052 356.72820187 -235.77783203 395.34082031 C-236.22572574 402.25087787 -236.27704279 409.16719803 -236.296875 416.08984375 C-236.30064148 416.82254486 -236.30440796 417.55524597 -236.30828857 418.31015015 C-236.65883061 432.70819028 -236.65883061 432.70819028 -232.546875 446.21484375 C-225.38704731 449.88207257 -214.8959361 447.16103448 -207.24079895 446.01792908 C-206.10962212 445.85544239 -204.97844529 445.6929557 -203.81299037 445.52554518 C-200.04714711 444.98268162 -196.283023 444.42872601 -192.51879883 443.87475586 C-189.80713784 443.48063637 -187.09513678 443.08887948 -184.38314819 442.69702148 C-178.54735767 441.85254368 -172.71242052 441.00236757 -166.87803078 440.14826775 C-158.39040106 438.90576942 -149.90151663 437.67202363 -141.41231927 436.4402873 C-127.56752314 434.43124122 -113.72375387 432.41520826 -99.88061523 430.39477539 C-86.55822909 428.45036259 -73.23538058 426.50917059 -59.91186523 424.57250977 C-59.0965748 424.45400077 -58.28128436 424.33549177 -57.44128815 424.21339159 C-53.3439545 423.61783152 -49.24661169 423.02233441 -45.14926493 422.4268645 C-25.59246922 419.58459656 -6.03588534 416.74086976 13.5197956 413.890941 C15.69944569 413.57330602 17.87910783 413.25575384 20.0587706 412.9382059 C27.01132167 411.92513241 33.96359859 410.91023098 40.91536236 409.89176846 C52.29639534 408.22537363 63.67792282 406.5661164 75.06960815 404.97388667 C79.60717907 404.33939309 84.14369701 403.69754755 88.68018019 403.05532944 C91.74671986 402.62481732 94.81473454 402.20627444 97.88297558 401.78809261 C99.70705394 401.5301188 101.53104621 401.27153515 103.35493469 401.01222229 C104.1685585 400.90528002 104.98218231 400.79833776 105.82046139 400.68815482 C111.27231551 399.89427515 115.02713912 398.51582963 119.015625 394.52734375 C119.93441741 388.21993516 118.5243148 381.94004571 117.015625 375.83984375 C116.79342285 374.93556641 116.5712207 374.03128906 116.34228516 373.09960938 C110.26960871 349.36505443 100.30834113 326.78110462 85.015625 307.52734375 C84.59877441 306.9977002 84.18192383 306.46805664 83.75244141 305.92236328 C53.040976 267.2898942 9.81786894 243.15508063 -39.19067383 237.34985352 C-90.19601593 231.92445236 -141.82431225 249.21604034 -178.984375 284.52734375 Z M72.015625 241.52734375 C71.75007813 242.54054688 71.48453125 243.55375 71.2109375 244.59765625 C70.85426811 245.94924552 70.49749157 247.30080653 70.140625 248.65234375 C69.96660156 249.3175 69.79257812 249.98265625 69.61328125 250.66796875 C68.5525117 254.67532039 67.37130189 258.60687274 66.015625 262.52734375 C66.45318115 262.93460693 66.8907373 263.34187012 67.34155273 263.76147461 C83.41240067 278.73403881 83.41240067 278.73403881 91.015625 286.52734375 C96.45921915 282.74707004 99.7160859 278.09929861 101.015625 271.52734375 C101.87082262 263.40997615 100.44110975 257.12494397 95.54296875 250.55078125 C90.77582379 245.25395352 84.74233877 241.99314268 77.59765625 241.2890625 C75.73531093 241.27917394 73.87290811 241.38976722 72.015625 241.52734375 Z M-205.26171875 250.0078125 C-211.0734703 254.73730119 -214.42433526 260.2082788 -215.984375 267.52734375 C-216.43172434 273.23104786 -215.62010665 278.43579388 -212.984375 283.52734375 C-211.33916543 285.21519476 -209.67406756 286.88402558 -207.984375 288.52734375 C-207.34935059 287.88708252 -206.71432617 287.24682129 -206.06005859 286.5871582 C-203.68028195 284.19023745 -201.29819306 281.79566212 -198.91455078 279.40258789 C-197.8875874 278.37062672 -196.86152709 277.33776597 -195.83642578 276.30395508 C-194.35431418 274.80957673 -192.86887678 273.31857152 -191.3828125 271.828125 C-190.04742432 270.48488159 -190.04742432 270.48488159 -188.68505859 269.11450195 C-185.90630511 266.45255559 -182.94052297 263.99080039 -179.984375 261.52734375 C-182.954375 254.10234375 -182.954375 254.10234375 -185.984375 246.52734375 C-193.70867087 245.42387291 -198.68847222 245.73463851 -205.26171875 250.0078125 Z M175.015625 249.52734375 C174.01028773 254.52412912 173.01310344 259.52207661 172.05078125 264.52734375 C168.73570316 281.64431469 168.73570316 281.64431469 166.015625 289.52734375 C165.685625 290.51734375 165.355625 291.50734375 165.015625 292.52734375 C166.77041082 294.28212957 169.13067463 293.78262903 171.515625 293.83984375 C178.78551163 293.73648043 183.88070315 292.42944757 189.27734375 287.43359375 C195.79379155 280.41408086 197.48718353 275.31872215 197.3359375 265.7578125 C196.89271569 261.28775843 195.54122548 258.18989839 193.015625 254.52734375 C192.37625 253.57859375 191.736875 252.62984375 191.078125 251.65234375 C185.90721252 246.32473696 181.5687026 247.74006572 175.015625 249.52734375 Z M-249.57421875 297.5625 C-253.50075231 303.03354261 -253.61995836 309.02018082 -252.984375 315.52734375 C-251.43648731 322.77249872 -247.2441466 328.17727585 -241.296875 332.46484375 C-238.9541881 333.73609384 -238.9541881 333.73609384 -235.984375 333.52734375 C-235.67733643 332.92784912 -235.37029785 332.32835449 -235.05395508 331.71069336 C-233.64060995 328.9591161 -232.21881821 326.21198693 -230.796875 323.46484375 C-230.31412109 322.52189453 -229.83136719 321.57894531 -229.33398438 320.60742188 C-227.13597706 316.37367625 -224.97802973 312.37558596 -222.05859375 308.59375 C-219.70310766 305.84934708 -219.70310766 305.84934708 -220.27539062 303.45410156 C-221.11907862 301.16126903 -222.2667748 299.6168164 -223.796875 297.71484375 C-226.58365778 294.13567454 -228.82538121 290.51317843 -230.984375 286.52734375 C-238.84836185 285.29859581 -245.01000654 291.97939759 -249.57421875 297.5625 Z M112.015625 289.52734375 C110.10103514 291.3964604 110.10103514 291.3964604 108.453125 293.83984375 C106.44592358 296.61595083 104.51633471 299.17865287 102.015625 301.52734375 C102.40492188 302.04039062 102.79421875 302.5534375 103.1953125 303.08203125 C108.86505638 310.84200329 113.35654241 319.16058454 117.94335938 327.58837891 C119.24252363 329.93764178 120.60974656 332.24050901 122.015625 334.52734375 C127.8261958 331.44418373 130.40191755 327.47208531 133.015625 321.52734375 C134.79941297 314.50059889 134.44589345 307.96351753 131.015625 301.52734375 C127.19676493 295.86454861 122.62603782 291.59906076 116.015625 289.52734375 C114.695625 289.52734375 113.375625 289.52734375 112.015625 289.52734375 Z M-264.26953125 347.7421875 C-269.78291422 353.48163173 -271.43464292 360.04165214 -271.3203125 367.8046875 C-270.35218252 375.65104326 -265.93342469 381.34865792 -259.921875 386.1875 C-257.7098672 387.71717475 -255.57807979 388.79786428 -252.984375 389.52734375 C-251.36042843 384.13584115 -250.15449624 378.73313167 -249.046875 373.21484375 C-247.80761866 367.15158956 -246.47262021 361.21573374 -244.5 355.33984375 C-243.84756209 353.36049505 -243.84756209 353.36049505 -243.984375 350.52734375 C-246.56347004 348.58862015 -246.56347004 348.58862015 -249.796875 346.83984375 C-250.87582031 346.21722656 -251.95476562 345.59460938 -253.06640625 344.953125 C-258.41211024 342.34110096 -260.2561116 344.1530194 -264.26953125 347.7421875 Z M132.015625 349.52734375 C131.025625 350.18734375 130.035625 350.84734375 129.015625 351.52734375 C130.18327074 357.59450652 131.4879185 363.61240391 132.91918945 369.62255859 C134.96778904 378.26477977 136.80878592 386.61445977 137.015625 395.52734375 C144.40058939 394.20860011 149.9508903 391.54032557 154.59375 385.4609375 C158.99402899 378.59498493 159.87645974 372.6508532 159.015625 364.52734375 C156.88531749 357.67787969 153.13172382 352.32483954 147.015625 348.52734375 C140.28013078 345.31822241 137.7971984 344.73286825 132.015625 349.52734375 Z M-273.984375 410.52734375 C-279.2769173 417.55452311 -280.15077645 424.94438965 -278.984375 433.52734375 C-276.87126957 441.03508306 -271.29515488 446.55360959 -264.734375 450.46484375 C-259.7534534 451.87610487 -255.12436356 451.7783016 -249.984375 451.52734375 C-250.18933594 450.61339844 -250.39429688 449.69945312 -250.60546875 448.7578125 C-253.43521451 435.10896469 -253.70626229 421.42836941 -253.984375 407.52734375 C-255.41991525 407.02174467 -256.8578952 406.52306885 -258.296875 406.02734375 C-259.09738281 405.74890625 -259.89789063 405.47046875 -260.72265625 405.18359375 C-266.62543118 403.47087149 -269.88963263 406.55209775 -273.984375 410.52734375 Z " fill="#000000" transform="translate(296.984375,25.47265625)"/>
<path d="M0 0 C2.2077891 3.31168365 2.58618905 5.07497666 2.6640625 8.9375 C1.54531211 12.41220709 -0.10167979 13.78024044 -3 16 C-6.53982386 17.17919259 -10.14239599 17.7955818 -13.8125 18.4375 C-50.92187064 25.75119541 -82.28624618 47.4591676 -103.85888672 78.3671875 C-105.37600775 80.53802734 -106.92832236 82.68088807 -108.5 84.8125 C-108.9228125 85.39644531 -109.345625 85.98039062 -109.78125 86.58203125 C-111 88 -111 88 -114 90 C-117.50174186 90.14825923 -120.85736557 89.62660598 -123.9375 87.9375 C-125.82409524 84.4972381 -126.5748395 81.8483992 -126 78 C-123.84731992 73.30552567 -121.00261596 69.17663293 -118 65 C-117.6076416 64.44538086 -117.2152832 63.89076172 -116.81103516 63.31933594 C-105.48081044 47.51337223 -91.32295199 33.57753857 -75 23 C-74.34064453 22.57138672 -73.68128906 22.14277344 -73.00195312 21.70117188 C-56.82860881 11.35578195 -39.63147196 4.4794102 -21 0 C-19.48212891 -0.36931641 -19.48212891 -0.36931641 -17.93359375 -0.74609375 C-5.31070917 -3.54047278 -5.31070917 -3.54047278 0 0 Z " fill="#000000" transform="translate(224,282)"/>
<path d="M0 0 C2.60471922 2.76365124 3.87224947 4.23349682 4.5 8 C3.88466097 11.69203416 2.58383614 13.34016868 0 16 C-6.21807364 19.10903682 -16.72399141 15.10348013 -23.09375 13.71875 C-58.38340066 7.22545428 -96.15235893 15.47559424 -125.79931641 35.4440918 C-130.34437007 38.40557707 -133.39327832 39.78410835 -139 39 C-141.91963173 37.01216563 -143.61102978 35.5685303 -144.48046875 32.0625 C-144.76062068 28.06465629 -144.55595923 26.64179854 -141.82421875 23.48828125 C-109.38973497 -5.08815882 -39.66571743 -20.27358891 0 0 Z " fill="#000000" transform="translate(323,101)"/>
</svg>
