<?xml version="1.0" encoding="UTF-8"?>
<svg version="1.1" xmlns="http://www.w3.org/2000/svg" width="512" height="512">
<path d="M0 0 C0.62390625 0.30164063 1.2478125 0.60328125 1.890625 0.9140625 C8.07411838 5.77252158 9.10580765 12.78478989 10.6953125 20.08203125 C10.9512619 21.20316818 11.2072113 22.32430511 11.47091675 23.47941589 C12.28407778 27.0462281 13.08088829 30.61640224 13.875 34.1875 C14.67768628 37.77607862 15.48398288 41.36368587 16.30050659 44.94914246 C16.80758281 47.17747359 17.30643344 49.40769497 17.79641724 51.6398468 C18.02360443 52.64146347 18.25079163 53.64308014 18.48486328 54.67504883 C18.68153595 55.56074051 18.87820862 56.44643219 19.08084106 57.35896301 C19.30166351 58.02425522 19.52248596 58.68954742 19.75 59.375 C20.41 59.705 21.07 60.035 21.75 60.375 C21.70359375 59.28960937 21.6571875 58.20421875 21.609375 57.0859375 C21.57183513 55.64065269 21.53543736 54.19533789 21.5 52.75 C21.46648437 52.03714844 21.43296875 51.32429688 21.3984375 50.58984375 C21.30254391 45.3636429 22.3400159 42.54275834 25.75 38.375 C31.02450878 33.61507744 35.03251035 33.23130865 41.91796875 33.27734375 C42.71278152 33.2787587 43.5075943 33.28017365 44.32649231 33.28163147 C46.86353325 33.28722622 49.40048575 33.29977772 51.9375 33.3125 C53.65820185 33.31751568 55.37890508 33.32207847 57.09960938 33.32617188 C61.3164403 33.33719393 65.53320516 33.35445494 69.75 33.375 C69.88954102 32.26423096 70.02908203 31.15346191 70.17285156 30.0090332 C70.73730878 26.45491066 71.15145186 25.14711354 73.5 22.5625 C74.23476563 21.71751953 74.23476563 21.71751953 74.984375 20.85546875 C79.73125383 16.87523186 84.89363913 17.06776047 90.77734375 17.07421875 C92.07714928 17.06779106 92.07714928 17.06779106 93.4032135 17.06123352 C95.23128386 17.05550457 97.05937701 17.05497936 98.88745117 17.05932617 C101.67471436 17.06248551 104.4609148 17.03901168 107.24804688 17.01367188 C109.0286445 17.01139857 110.80924497 17.01069553 112.58984375 17.01171875 C113.83229103 16.99790413 113.83229103 16.99790413 115.09983826 16.98381042 C120.74339529 17.02863421 125.10346075 17.90447761 129.39453125 21.91015625 C132.38262027 25.81765728 133.87716579 27.84964627 133.86352539 32.73291016 C133.86344986 33.63369293 133.86337433 34.53447571 133.86329651 35.46255493 C133.85813522 36.43655243 133.85297394 37.41054993 133.84765625 38.4140625 C133.84553383 39.90805069 133.84553383 39.90805069 133.84336853 41.43222046 C133.83775936 44.62151053 133.8252053 47.81073106 133.8125 51 C133.80748618 53.15885315 133.80292307 55.31770741 133.79882812 57.4765625 C133.78778695 62.7760655 133.77103988 68.07552778 133.75 73.375 C134.56678223 73.35928955 135.38356445 73.3435791 136.22509766 73.32739258 C139.94166077 73.2648606 143.65811296 73.22595056 147.375 73.1875 C148.66019531 73.16236328 149.94539063 73.13722656 151.26953125 73.11132812 C152.51347656 73.10166016 153.75742187 73.09199219 155.0390625 73.08203125 C156.18068848 73.0663208 157.32231445 73.05061035 158.49853516 73.03442383 C162.82844642 73.48796236 166.19775101 74.92598847 169.39453125 77.91015625 C173.11954296 82.78132541 173.8725884 84.8709837 173.8125 91 C173.80347656 92.18851562 173.79445313 93.37703125 173.78515625 94.6015625 C173.76775391 95.97441406 173.76775391 95.97441406 173.75 97.375 C175.07451172 97.44847656 175.07451172 97.44847656 176.42578125 97.5234375 C198.81154263 98.91803918 198.81154263 98.91803918 207.0625 106.5 C212.33480757 115.48244994 208.85388762 127.4211508 207.3125 137.125 C206.94520089 139.49203868 206.58147651 141.85954466 206.22239685 144.22784424 C205.99964406 145.69119873 205.7718119 147.15379256 205.53797913 148.61541748 C204.92691537 152.56569854 204.39354364 156.38239204 204.75 160.375 C207.44140528 162.42043223 207.44140528 162.42043223 210.75 164.375 C215.25642226 168.7756377 218.41224861 172.95075449 219.0471077 179.3871851 C219.0711512 188.4570377 217.78904097 196.85815293 215.85449219 205.69506836 C215.54053022 207.1799183 215.22782468 208.66503436 214.91625786 210.15038872 C214.06994338 214.1676571 213.20629144 218.18101717 212.33947039 222.19390321 C211.41729078 226.47842168 210.51178056 230.76646345 209.6043396 235.05412292 C207.85595279 243.30303206 206.09312506 251.54878535 204.32501376 259.79348654 C202.09304022 270.20411828 199.87824264 280.61839066 197.66357422 291.03271484 C196.85971944 294.81185645 196.0557154 298.59096628 195.25161743 302.37005615 C195.05336093 303.30185967 194.85510443 304.23366319 194.65084016 305.19370317 C193.25391103 311.75777027 191.85393304 318.32118281 190.45272827 324.88433838 C186.21029125 344.76008332 182.00075041 364.64170753 177.87971497 384.5430088 C177.16412643 387.99845966 176.44700503 391.45358873 175.72937012 394.90861511 C173.19197665 407.12312977 173.19197665 407.12312977 170.67810059 419.34249878 C169.75824724 423.83758444 168.82772706 428.33032479 167.88881302 432.82146645 C167.5606037 434.40176421 167.23649696 435.98292173 166.91724777 437.56505394 C163.64788245 453.75657066 159.15177398 466.76384945 145.375 476.8125 C135.77047036 482.53555237 125.67583124 482.81755289 114.75439453 482.77905273 C113.27634163 482.78476778 111.79829314 482.79173639 110.32025146 482.79985046 C106.33662137 482.81767284 102.35321286 482.81663414 98.369555 482.81090808 C95.0299314 482.8078 91.69034938 482.81392663 88.35073173 482.81994683 C80.46474244 482.83395489 72.57886157 482.83246215 64.69287109 482.82104492 C56.58858811 482.80957009 48.48463632 482.8236371 40.38039696 482.8504414 C33.39316977 482.87267611 26.40604595 482.87921827 19.41878593 482.87336498 C15.2584609 482.87001239 11.09834801 482.8722963 6.93805313 482.88961601 C3.02259787 482.90520755 -0.89237103 482.9009963 -4.80780792 482.88231087 C-6.23430674 482.8786583 -7.66084259 482.88163463 -9.08730698 482.89219666 C-21.70108396 482.97837178 -33.79782711 481.36461975 -43.25 472.375 C-43.93835938 471.72660156 -44.62671875 471.07820313 -45.3359375 470.41015625 C-54.94153319 460.53674655 -57.37755834 447.71603301 -60.03613281 434.66699219 C-60.38264062 433.01157987 -60.73020639 431.35638872 -61.07873535 429.70140076 C-62.01991694 425.21763931 -62.94644259 420.73096208 -63.87043858 416.24363232 C-64.85991316 411.45193469 -65.86344909 406.66318211 -66.86541748 401.87408447 C-68.7775277 392.72462766 -70.67774095 383.57274389 -72.57342219 374.41987062 C-75.28226931 361.34342498 -78.00933713 348.27078021 -80.7355423 335.19794464 C-81.14959644 333.2122477 -81.56363606 331.22654773 -81.97766113 329.24084473 C-82.28456462 327.76899113 -82.28456462 327.76899113 -82.59766817 326.26740313 C-83.83482335 320.33212855 -85.06862937 314.39616873 -86.29978418 308.4596467 C-90.34769662 288.94211438 -94.42995902 269.43373771 -98.6564908 249.95400381 C-99.26886875 247.12968858 -99.87946528 244.3049945 -100.48940659 241.48015213 C-100.88589766 239.64433949 -101.28239343 237.80852786 -101.67889404 235.97271729 C-101.87191471 235.07878556 -102.06493537 234.18485384 -102.26380515 233.26383328 C-103.38667681 228.07025481 -104.52260665 222.87975663 -105.66882229 217.69128323 C-106.36873697 214.50952258 -107.05682719 211.32528485 -107.74196529 208.14031315 C-108.05696091 206.68838581 -108.37692525 205.2375247 -108.70259953 203.78795528 C-114.1513963 179.50737014 -114.1513963 179.50737014 -108.66235733 170.06688595 C-107.02538365 168.1059284 -105.22607858 166.85310099 -103.15228271 165.36732483 C-99.77654786 162.44765921 -98.66504227 160.58745949 -98.2769165 156.13182068 C-98.24834726 154.06647633 -98.26339381 152.0002374 -98.31347656 149.93530273 C-98.30897995 148.80275055 -98.30448334 147.67019836 -98.29985046 146.50332642 C-98.29354843 142.77070645 -98.34263249 139.04087524 -98.390625 135.30859375 C-98.39326391 132.70980422 -98.39180082 130.11100757 -98.38641357 127.51222229 C-98.38122661 121.37452526 -98.40858677 115.23785645 -98.45463252 109.10035425 C-98.54163826 97.45927108 -98.57183465 85.81837844 -98.5701828 74.1769886 C-98.57802863 70.35553348 -98.61288979 66.53499364 -98.65045166 62.71372986 C-98.65752837 60.37092339 -98.66373953 58.0281141 -98.66894531 55.68530273 C-98.6953434 54.09310158 -98.6953434 54.09310158 -98.72227478 52.46873474 C-98.70780994 46.42459773 -98.27865724 42.97693691 -94.25 38.375 C-89.23617579 33.85032937 -85.51648298 33.22788234 -78.95703125 33.27734375 C-77.89798836 33.27946617 -77.89798836 33.27946617 -76.81755066 33.28163147 C-74.56582374 33.28722236 -72.31419679 33.29977312 -70.0625 33.3125 C-68.53450665 33.31751618 -67.00651173 33.32207888 -65.47851562 33.32617188 C-61.73563865 33.3371888 -57.99283627 33.35444713 -54.25 33.375 C-54.40670166 32.48876953 -54.56340332 31.60253906 -54.72485352 30.68945312 C-54.92006592 29.52349609 -55.11527832 28.35753906 -55.31640625 27.15625 C-55.51435791 26.00189453 -55.71230957 24.84753906 -55.91625977 23.65820312 C-56.5156735 17.76141026 -54.8135092 14.30362245 -51.17578125 9.81640625 C-47.44079964 6.69976605 -44.1728352 5.87109705 -39.5 4.8125 C-38.66815186 4.61052002 -37.83630371 4.40854004 -36.97924805 4.20043945 C-35.25603534 3.78428889 -33.53097533 3.3757173 -31.80419922 2.97460938 C-29.36283735 2.40148906 -26.93334389 1.79337089 -24.50390625 1.171875 C-23.02366412 0.80117725 -21.54320483 0.43134524 -20.0625 0.0625 C-19.05848145 -0.19478882 -19.05848145 -0.19478882 -18.03417969 -0.45727539 C-12.08587073 -1.88483978 -5.64582909 -2.91780243 0 0 Z M-16.5703125 16.90625 C-18.45556641 17.37998047 -18.45556641 17.37998047 -20.37890625 17.86328125 C-21.7109503 18.20047026 -23.04298139 18.53771051 -24.375 18.875 C-25.71478955 19.21245484 -27.05463267 19.54969708 -28.39453125 19.88671875 C-31.68022171 20.71405088 -34.96534463 21.54356963 -38.25 22.375 C-37.55398845 29.26485496 -36.08083756 35.85927263 -34.48120117 42.59106445 C-34.19796997 43.79778305 -33.91473877 45.00450165 -33.6229248 46.24778748 C-32.84628762 49.55301053 -32.065958 52.85732034 -31.28398299 56.16128182 C-30.4524307 59.67876358 -29.62570078 63.19737866 -28.79841614 66.71586609 C-27.21882913 73.43070843 -25.63499845 80.14454229 -24.04962283 86.85802001 C-22.29376614 94.29424964 -20.54237782 101.73152878 -18.79151702 109.16893601 C-16.57380065 118.58931042 -14.35518443 128.00947134 -12.13278198 137.42874146 C-11.96617077 138.13490022 -11.79955956 138.84105899 -11.62789953 139.56861651 C-11.29342678 140.98620984 -10.95895282 142.40380288 -10.62447762 143.82139564 C-7.94158472 155.19233134 -5.26456777 166.56461295 -2.59619141 177.93896484 C-2.03120524 180.34596515 -1.4662082 182.75296291 -0.90119934 185.15995789 C-0.10892682 188.53529871 0.68289596 191.91074128 1.47315407 195.28655434 C2.17971913 198.30484345 2.88790879 201.32274707 3.59643555 204.34057617 C3.8023123 205.22234968 4.00818905 206.10412319 4.22030449 207.01261711 C4.40889597 207.81457575 4.59748745 208.61653439 4.79179382 209.4427948 C4.95392711 210.13496692 5.11606039 210.82713903 5.2831068 211.54028606 C5.6984391 213.17238513 6.21743561 214.77730684 6.75 216.375 C8.4051787 217.32846176 8.4051787 217.32846176 10.46875 217.9453125 C11.23703125 218.20183594 12.0053125 218.45835937 12.796875 218.72265625 C13.60640625 218.97917969 14.4159375 219.23570312 15.25 219.5 C16.41789062 219.89638672 16.41789062 219.89638672 17.609375 220.30078125 C23.00440136 222.06041733 28.09525794 222.91131115 33.75 223.375 C31.19651536 209.5667273 27.87336736 195.93733461 24.62280607 182.28026509 C23.81878768 178.89870841 23.01846064 175.51627866 22.21792603 172.13389587 C19.67277483 161.38318549 17.12199353 150.63381273 14.56848872 139.88508362 C12.88386163 132.79369962 11.20167036 125.70174761 9.52403319 118.60870641 C8.57531247 114.59839548 7.62276782 110.58901913 6.66726279 106.58031952 C5.93413014 103.49974189 5.20652002 100.41785927 4.47802734 97.33618164 C4.21516434 96.23836868 3.95230133 95.14055573 3.68147278 94.00947571 C-0.07504817 78.04738091 -0.07504817 78.04738091 2.3125 73.0625 C6.29291319 62.36170712 -0.78002187 46.46198644 -3.375 35.6875 C-3.84792973 33.71425823 -4.32058832 31.74095146 -4.79296875 29.76757812 C-5.9421854 24.96929633 -7.09507611 20.17191114 -8.25 15.375 C-11.1583819 15.375 -13.75119425 16.19512107 -16.5703125 16.90625 Z M85.75 34.375 C85.75 96.085 85.75 157.795 85.75 221.375 C96.95949139 217.97372642 96.95949139 217.97372642 107.375 213.25 C108.05433594 212.90324219 108.73367188 212.55648437 109.43359375 212.19921875 C112.31650197 210.71511807 115.04976035 209.17515976 117.75 207.375 C118.20016146 204.28384343 118.20016146 204.28384343 118.11076355 200.56674194 C118.11460846 199.50449683 118.11460846 199.50449683 118.11853105 198.42079222 C118.12349216 196.03599676 118.10693843 193.65182745 118.09057617 191.26708984 C118.0897304 189.56238317 118.09020407 187.8576754 118.09190369 186.15296936 C118.09276701 181.51471095 118.07508685 176.87668367 118.05418181 172.23847914 C118.03547106 167.39513275 118.03366901 162.55178149 118.03010559 157.70840454 C118.02076862 148.53214272 117.99613254 139.35598769 117.96605712 130.17977297 C117.93256445 119.73495849 117.91604004 109.290139 117.90097082 98.84528422 C117.86958436 77.35511657 117.81455172 55.86509538 117.75 34.375 C107.19 34.375 96.63 34.375 85.75 34.375 Z M-82.25 50.375 C-82.25 85.685 -82.25 120.995 -82.25 157.375 C-74.17904338 156.80361689 -74.17904338 156.80361689 -66.25 155.375 C-66.24635437 154.69927948 -66.24270874 154.02355896 -66.23895264 153.32736206 C-66.19710262 146.28657795 -66.12773862 139.24644418 -66.04248047 132.20605469 C-66.01427622 129.57949329 -65.99305904 126.9528471 -65.97900391 124.32617188 C-65.957568 120.54773566 -65.91091052 116.77031837 -65.859375 112.9921875 C-65.85814636 111.82009735 -65.85691772 110.6480072 -65.85565186 109.44039917 C-65.7198266 101.85867217 -64.96773074 97.96453313 -59.4375 92.625 C-57.25 91.375 -57.25 91.375 -50.25 89.375 C-50.25 76.505 -50.25 63.635 -50.25 50.375 C-60.81 50.375 -71.37 50.375 -82.25 50.375 Z M37.75 50.375 C37.75 52.355 37.75 54.335 37.75 56.375 C38.575 56.21 39.4 56.045 40.25 55.875 C47.19517471 54.88283218 51.72234196 54.92323346 57.98828125 58.01171875 C61.99882225 61.11521943 63.25460785 65.56163401 64.35546875 70.33203125 C64.74702148 71.99975586 64.74702148 71.99975586 65.14648438 73.70117188 C65.53803711 75.4269043 65.53803711 75.4269043 65.9375 77.1875 C66.34645508 78.94223633 66.34645508 78.94223633 66.76367188 80.73242188 C67.43351815 83.61158567 68.09532976 86.49235448 68.75 89.375 C69.08 89.375 69.41 89.375 69.75 89.375 C69.75 76.505 69.75 63.635 69.75 50.375 C59.19 50.375 48.63 50.375 37.75 50.375 Z M39.4296875 72.90625 C37.54443359 73.37998047 37.54443359 73.37998047 35.62109375 73.86328125 C34.2890497 74.20047026 32.95701861 74.53771051 31.625 74.875 C30.28521045 75.21245484 28.94536733 75.54969708 27.60546875 75.88671875 C24.31977829 76.71405088 21.03465537 77.54356963 17.75 78.375 C18.37719535 85.40353269 19.70366518 92.05666989 21.35449219 98.91137695 C21.61970673 100.03148666 21.88492126 101.15159637 22.15817261 102.3056488 C23.03258054 105.99277397 23.91463665 109.67802258 24.796875 113.36328125 C25.41167147 115.94799199 26.02606484 118.53279541 26.63995361 121.11772156 C27.92763756 126.53611993 29.21926062 131.9535663 30.51367188 137.37036133 C32.32233386 144.93921855 34.12355139 152.50983268 35.92340612 160.08078825 C37.33795596 166.02950166 38.75491543 171.97764147 40.171875 177.92578125 C40.46707787 179.16545465 40.76228073 180.40512806 41.06642914 181.68236732 C44.54212545 196.26861737 48.07317352 210.83805726 51.75 225.375 C53.17372925 225.3893811 53.17372925 225.3893811 54.6262207 225.40405273 C56.89013672 225.42692057 59.15405273 225.44978841 61.41796875 225.47265625 C64.35470675 225.38658538 66.89272308 224.99077407 69.75 224.375 C73.21006876 185.76324324 68.03798494 151.56219727 58.75 114.125 C58.35539204 112.53392614 58.35539204 112.53392614 57.95281219 110.91070938 C54.66568336 97.70204121 51.26253587 84.5254476 47.75 71.375 C44.8416181 71.375 42.24880575 72.19512107 39.4296875 72.90625 Z M133.75 90.375 C133.75 124.695 133.75 159.015 133.75 194.375 C140.82341281 187.30158719 146.15433276 180.08789032 150.90942383 171.33618164 C152.3755424 168.66008961 153.76095743 166.36315499 155.84002686 164.11567688 C158.28160976 160.61217746 158.23425828 158.53435294 158.20410156 154.28979492 C158.20468567 153.59656128 158.20526978 152.90332764 158.20587158 152.18908691 C158.20309746 149.91069464 158.17204032 147.63363082 158.140625 145.35546875 C158.13316015 143.77078465 158.12746837 142.1860913 158.12347412 140.60139465 C158.10823683 136.44025978 158.06897208 132.27968768 158.0246582 128.11877441 C157.983664 123.86897392 157.96545429 119.61908206 157.9453125 115.36914062 C157.90247526 107.03747399 157.83214162 98.70637194 157.75 90.375 C149.83 90.375 141.91 90.375 133.75 90.375 Z M-50.25 106.375 C-50.39869282 114.0612752 -50.50738532 121.74670703 -50.57958984 129.43408203 C-50.60969995 132.04718618 -50.65059754 134.66018979 -50.70263672 137.27294922 C-50.77569924 141.0363856 -50.80951641 144.798482 -50.8359375 148.5625 C-50.86690521 149.72426758 -50.89787292 150.88603516 -50.92977905 152.08300781 C-50.93296854 159.828503 -49.45323515 163.71820748 -44.25 169.375 C-43.22242579 171.16050129 -42.23491644 172.97047081 -41.3125 174.8125 C-38.47672942 180.16566482 -35.11684584 184.72947582 -31.25 189.375 C-30.54423828 190.28185547 -30.54423828 190.28185547 -29.82421875 191.20703125 C-25.64754765 196.41904618 -20.54559868 200.34574013 -15.25 204.375 C-14.59 204.045 -13.93 203.715 -13.25 203.375 C-16.09951421 191.17034618 -18.95054291 178.96604726 -21.80351925 166.76220226 C-23.12814396 161.09579319 -24.45224168 155.42926205 -25.77514648 149.76245117 C-27.05123756 144.29625888 -28.32869796 138.83038828 -29.60711861 133.36474037 C-30.09523115 131.27681245 -30.58284561 129.18876802 -31.06995964 127.10060692 C-31.75097929 124.18159109 -32.43374997 121.26299013 -33.11694336 118.34448242 C-33.42012482 117.04220703 -33.42012482 117.04220703 -33.72943115 115.71362305 C-33.91591721 114.91856857 -34.10240326 114.1235141 -34.29454041 113.30436707 C-34.45585418 112.61394412 -34.61716795 111.92352118 -34.78337002 111.21217632 C-35.19814685 109.57915187 -35.71719528 107.97341416 -36.25 106.375 C-40.87 106.375 -45.49 106.375 -50.25 106.375 Z M173.75 114.375 C173.75 127.905 173.75 141.435 173.75 155.375 C178.04 156.035 182.33 156.695 186.75 157.375 C189.95468761 136.90434429 189.95468761 136.90434429 192.75 116.375 C190.52149723 116.03725668 188.29216533 115.7049813 186.0625 115.375 C184.82113281 115.189375 183.57976562 115.00375 182.30078125 114.8125 C178.51919315 114.27309369 178.51919315 114.27309369 173.75 114.375 Z M-78.1875 173.6875 C-79.52844727 173.86442383 -79.52844727 173.86442383 -80.89648438 174.04492188 C-85.60908866 174.72714744 -89.40182593 175.35087937 -93.25 178.375 C-95.63056997 183.13613994 -94.08743422 189.02225567 -93.03565979 194.01841736 C-92.90473008 194.64990631 -92.77380036 195.28139526 -92.63890308 195.93202025 C-92.20154909 198.03287511 -91.75423689 200.13147793 -91.30688477 202.23022461 C-90.98904385 203.74662922 -90.67182033 205.26316335 -90.35516357 206.77981567 C-89.49055257 210.91202556 -88.6172137 215.04234782 -87.74231839 219.1723907 C-86.80970665 223.58218607 -85.88506393 227.99365247 -84.9594574 232.40492249 C-83.18629445 240.84938445 -81.40581042 249.29228594 -79.62282079 257.73467785 C-77.66271004 267.01761818 -75.71120236 276.30235904 -73.76029515 285.58723712 C-65.95696261 322.720601 -58.10166923 359.84298517 -50.21917605 396.95962071 C-49.65541517 399.61444254 -49.0918552 402.26930696 -48.52832222 404.92417717 C-47.6529447 409.04769323 -46.77674817 413.17103441 -45.89986348 417.29423022 C-45.57941801 418.80143151 -45.25920239 420.30868168 -44.93923259 421.81598401 C-44.50334209 423.86901095 -44.06654855 425.92184367 -43.62950134 427.97462463 C-43.38570708 429.12131906 -43.14191282 430.26801348 -42.89073086 431.44945621 C-42.38234512 433.77071905 -41.844884 436.07474922 -41.25 438.375 C-40.64671875 438.34019531 -40.0434375 438.30539062 -39.421875 438.26953125 C-35.88355749 438.14968501 -33.01181555 438.07770613 -29.6875 439.375 C-27.82640327 441.96435197 -27.64039751 444.22504988 -27.78515625 447.375 C-28.55761239 450.69850875 -30.67592481 452.29122485 -33.25 454.375 C-33.91 455.035 -34.57 455.695 -35.25 456.375 C-34.26394648 457.32715793 -33.26006634 458.26085431 -32.25 459.1875 C-31.693125 459.70957031 -31.13625 460.23164063 -30.5625 460.76953125 C-22.85707673 466.11907342 -14.92441967 465.80602968 -5.8828125 465.76318359 C-4.43649907 465.76725432 -2.99018876 465.772599 -1.54388428 465.77911377 C2.36522367 465.79273377 6.27409279 465.78751086 10.18320465 465.77797651 C14.28474037 465.77035224 18.3862564 465.77743319 22.48779297 465.78213501 C29.37406057 465.78758453 36.26023147 465.78042211 43.14648438 465.76611328 C51.09454791 465.74978829 59.04238052 465.75507737 66.99043846 465.7715925 C73.82890479 465.78523033 80.66730182 465.78711582 87.50577736 465.77927649 C91.58378506 465.77461258 95.66168442 465.77393969 99.73968506 465.78388596 C103.57459001 465.79258689 107.40919882 465.78647709 111.24407196 465.76920319 C112.6468634 465.76525496 114.04968 465.76634372 115.45246124 465.77299118 C124.56649804 465.8121806 132.73253882 465.76636986 139.75 459.1875 C140.3275 458.65769531 140.905 458.12789063 141.5 457.58203125 C141.9125 457.18371094 142.325 456.78539062 142.75 456.375 C142.151875 455.776875 141.55375 455.17875 140.9375 454.5625 C140.215625 453.840625 139.49375 453.11875 138.75 452.375 C138.1725 451.9625 137.595 451.55 137 451.125 C135.17754268 448.57355975 135.26697471 446.32752914 135.4140625 443.25 C135.75 441.375 135.75 441.375 137.1875 439.375 C139.87873969 438.32476012 141.55210902 438.27134 144.41015625 438.3125 C145.22234619 438.32152344 146.03453613 438.33054687 146.87133789 438.33984375 C147.80127563 438.35724609 147.80127563 438.35724609 148.75 438.375 C155.64676415 406.77062068 162.35053779 375.12673865 168.99609375 343.46875 C169.20094407 342.49289192 169.40579438 341.51703384 169.61685228 340.51160431 C172.16002242 328.39539357 174.70077019 316.27867537 177.240646 304.16177368 C179.63506273 292.73909114 182.03141345 281.31681444 184.42773438 269.89453125 C186.88075077 258.20172572 189.33360692 246.50888673 191.78526306 234.8157959 C191.97279463 233.92140682 192.1603262 233.02701775 192.35354054 232.10552597 C193.22344872 227.95668734 194.09329114 223.80783496 194.96298218 219.65895081 C195.1192159 218.9143095 195.27544962 218.1696682 195.4364177 217.40246201 C195.74264833 215.94090129 196.04799847 214.47915577 196.35241306 213.01721573 C197.16963526 209.10029171 198.00858284 205.18930353 198.87306404 201.28251648 C199.05869913 200.4321977 199.24433422 199.58187892 199.43559462 198.7057929 C199.79100471 197.07965778 200.15195814 195.45471992 200.51959366 193.83130503 C202.30575236 185.85578377 202.30575236 185.85578377 200.71875 178.04296875 C197.87045992 175.6298341 194.83492664 175.23016666 191.25 174.6875 C190.53674561 174.57011475 189.82349121 174.45272949 189.08862305 174.33178711 C186.97815527 173.99400782 184.86489377 173.68362427 182.75 173.375 C181.65300781 173.19453125 180.55601562 173.0140625 179.42578125 172.828125 C178.48089844 172.69921875 177.53601563 172.5703125 176.5625 172.4375 C175.74394531 172.32535156 174.92539062 172.21320313 174.08203125 172.09765625 C170.59951549 172.51182479 169.20938639 173.90388363 166.75 176.375 C165.1883009 178.76231759 163.91641029 181.2712989 162.625 183.8125 C148.1830964 210.70495434 122.04503006 227.32521413 93.51953125 236.34765625 C57.52581528 246.15734257 18.52020005 242.55665922 -14.25 224.375 C-32.62237638 213.79106135 -46.49823546 199.7208012 -56.75073242 181.17504883 C-59.59947419 175.93920883 -59.59947419 175.93920883 -64.25 172.375 C-68.99703041 172.375 -73.49716281 173.01071768 -78.1875 173.6875 Z " fill="#000000" transform="translate(202.25,15.625)"/>
<path d="M0 0 C0.57234375 0.51304687 1.1446875 1.02609375 1.734375 1.5546875 C2.43046875 2.17085938 3.1265625 2.78703125 3.84375 3.421875 C9.82795982 9.03480173 14.35814808 15.41086374 14.97265625 23.8125 C15.12111092 31.54776959 14.97733647 37.84550468 10.734375 44.5546875 C10.115625 45.56402344 10.115625 45.56402344 9.484375 46.59375 C-1.34471291 62.52973732 -21.62009494 69.91382976 -39.82421875 73.4921875 C-72.57425967 79.45836057 -114.24846484 79.11836566 -142.80859375 59.37890625 C-143.61941406 58.77691406 -144.43023437 58.17492187 -145.265625 57.5546875 C-146.06613281 56.98363281 -146.86664063 56.41257812 -147.69140625 55.82421875 C-155.45614562 49.70377713 -160.41291961 41.41849714 -161.8359375 31.6328125 C-162.06249294 24.111172 -161.29743736 17.95740838 -157.265625 11.5546875 C-156.87632812 10.89339844 -156.48703125 10.23210937 -156.0859375 9.55078125 C-145.75582632 -6.06663536 -124.7872781 -13.58982478 -107.265625 -17.4453125 C-73.02032284 -24.26907508 -28.45152994 -23.2899692 0 0 Z M-142.265625 19.5546875 C-144.86988901 23.73952684 -144.92023221 27.75423462 -144.265625 32.5546875 C-138.80394669 43.93318397 -126.30764943 49.37244521 -115.17578125 53.77734375 C-85.1730973 63.93269237 -48.36457752 62.59222261 -19.72265625 48.85546875 C-12.67620418 44.96022506 -5.42140845 40.28343493 -2.265625 32.5546875 C-1.56665967 28.0845604 -1.80146907 24.52167902 -3.765625 20.4296875 C-18.17306382 3.86113285 -40.09971845 -1.53370179 -61.265625 -3.4453125 C-88.70245921 -5.08762554 -122.76490701 -2.24260265 -142.265625 19.5546875 Z " fill="#000000" transform="translate(329.265625,317.4453125)"/>
<path d="M0 0 C1.49756836 -0.04350586 1.49756836 -0.04350586 3.02539062 -0.08789062 C10.37814229 -0.15157202 10.37814229 -0.15157202 14.328125 2.11328125 C16.89079893 5.14434306 17.11741473 7.38772468 17.1875 11.3125 C16.08541992 14.71058026 15.26652124 15.25981917 12.1875 17.3125 C8.41045039 17.74974849 4.61210942 17.63666956 0.8125 17.625 C-0.74984375 17.64916992 -0.74984375 17.64916992 -2.34375 17.67382812 C-12.21576868 17.68014016 -12.21576868 17.68014016 -15.8125 14.3125 C-17.00881354 11.67730243 -17.11414752 9.1781514 -16.8125 6.3125 C-12.42572136 -0.79710676 -7.65025573 0.07323155 0 0 Z " fill="#000000" transform="translate(255.8125,432.6875)"/>
<path d="M0 0 C2.18423818 0.57338737 4.34499022 1.19668189 6.50585938 1.85253906 C7.21258789 2.06515381 7.91931641 2.27776855 8.64746094 2.49682617 C12.3520771 3.70401387 13.78314341 4.20596512 16.00585938 7.54003906 C16.65950058 14.40327174 16.65950058 14.40327174 14.56835938 18.04003906 C8.43831962 21.62835502 1.22696086 19.34053506 -5.30664062 17.85253906 C-6.00047852 17.70429688 -6.69431641 17.55605469 -7.40917969 17.40332031 C-10.89446571 16.53665376 -12.88841627 15.64326599 -15.47460938 13.11816406 C-16.99414062 10.54003906 -16.99414062 10.54003906 -16.99414062 6.97753906 C-14.41025535 -1.90456658 -8.0910416 -1.86624907 0 0 Z " fill="#000000" transform="translate(305.994140625,437.4599609375)"/>
<path d="M0 0 C2.01855692 3.28015499 2.5 5.5852443 2.5 9.4375 C0.35793623 13.07184984 -1.09944072 14.28471837 -5.07421875 15.80078125 C-6.43976209 16.14034327 -7.81142876 16.455995 -9.1875 16.75 C-10.25726074 16.99363281 -10.25726074 16.99363281 -11.34863281 17.2421875 C-23.9004606 19.9591816 -23.9004606 19.9591816 -29.0625 16.9375 C-31.02742759 13.52023462 -31.52115805 10.28185972 -30.5 6.4375 C-25.20852384 -0.61780155 -7.69115446 -4.80697154 0 0 Z " fill="#000000" transform="translate(220.5,438.5625)"/>
</svg>
