<?xml version="1.0" encoding="UTF-8"?>
<svg version="1.1" xmlns="http://www.w3.org/2000/svg" width="512" height="512">
<path d="M0 0 C1.14686279 0.23058105 1.14686279 0.23058105 2.31689453 0.46582031 C7.5411725 1.61723544 11.39437064 3.20687064 15.1875 7 C15.66399112 12.66188868 14.51658238 17.52749087 13.05810547 22.93261719 C12.82965848 23.80658331 12.60121149 24.68054943 12.36584187 25.58099937 C11.6036216 28.48850769 10.829184 31.39261486 10.0546875 34.296875 C9.5084029 36.37048263 8.96287265 38.44428911 8.41804504 40.51828003 C6.94814763 46.10490297 5.46763336 51.68866162 3.98501205 57.27191925 C2.44347875 63.08385121 0.91136277 68.89826473 -0.62182617 74.71240234 C-3.43501039 85.37466876 -6.25690298 96.03460852 -9.08230305 106.69364357 C-11.90389798 117.34020866 -14.71450933 127.98965652 -17.52377319 138.63948059 C-19.48972398 146.09032099 -21.45887551 153.54031591 -23.42848969 160.9901886 C-23.89084179 162.73920878 -24.35306722 164.48826245 -24.81516266 166.23735046 C-29.65035424 184.5390552 -34.48614736 202.83340462 -39.8125 221 C-38.9409729 220.77181076 -38.0694458 220.54362152 -37.17150879 220.30851746 C-25.55226004 217.26656922 -13.93252258 214.22649088 -2.3125 211.1875 C-0.87492781 210.81151987 -0.87492781 210.81151987 0.59168625 210.42794418 C38.71761385 200.45719057 76.858312 190.54371404 115.00519657 180.65346527 C119.33744752 179.53019491 123.6696103 178.4065847 128.00176811 177.28295517 C130.96095611 176.51562493 133.92029882 175.74889369 136.87965393 174.98220825 C138.69786089 174.51074066 140.51605294 174.03921554 142.33422852 173.56762695 C143.18980882 173.34599129 144.04538912 173.12435562 144.9268961 172.89600372 C148.84371615 171.87900423 152.75682763 170.8510762 156.662323 169.79135132 C157.35154059 169.60475291 158.04075819 169.41815451 158.75086117 169.2259016 C160.56511481 168.73277007 162.37812805 168.23508107 164.19102478 167.73698425 C168.19272215 166.75276522 171.11014604 166.30761914 175.1875 167 C179.92911934 171.31550823 180.61834929 176.78897709 181.8125 182.8125 C182.02487305 183.84568359 182.23724609 184.87886719 182.45605469 185.94335938 C190.33572862 225.20734701 188.2161608 265.79471658 176.1875 304 C175.92598145 304.84079102 175.66446289 305.68158203 175.39501953 306.54785156 C164.65678841 340.51827532 145.87783187 371.87712965 120.89013672 397.26660156 C119.21411617 398.97290296 117.56097378 400.69903169 115.91015625 402.4296875 C109.06471391 409.53077306 101.83559067 415.82347595 93.92285156 421.70898438 C92.79228336 422.55007113 91.66635704 423.39744514 90.54589844 424.25195312 C50.10773705 455.0875783 -0.40769058 470.51860017 -50.9375 470.3125 C-51.88848572 470.31034485 -52.83947144 470.3081897 -53.8192749 470.30596924 C-67.68384575 470.25553778 -81.2082295 469.90853497 -94.8125 467 C-96.28976563 466.69400879 -96.28976563 466.69400879 -97.796875 466.38183594 C-153.4429224 454.61187456 -206.69800446 424.14596244 -240.60205078 377.65478516 C-241.80697093 376.00755869 -243.03949182 374.38428859 -244.27734375 372.76171875 C-274.30271969 332.79506829 -289.29578575 282.84362555 -289.1875 233.1875 C-289.18695618 232.2452356 -289.18641235 231.30297119 -289.18585205 230.33215332 C-289.04937229 178.70786594 -272.17216675 127.58077127 -239.8125 87 C-239.10738281 86.1028125 -238.40226562 85.205625 -237.67578125 84.28125 C-198.14238251 34.88224548 -140.80186543 3.14019479 -77.8125 -4 C-51.78857185 -6.71244312 -25.61948461 -5.1810184 0 0 Z M-155.8125 37 C-157.1573943 37.7164421 -158.50245026 38.43258081 -159.84765625 39.1484375 C-195.82828928 58.57145924 -224.65135269 88.67311161 -244.8125 124 C-245.21452637 124.70092773 -245.61655273 125.40185547 -246.03076172 126.12402344 C-274.42806624 176.17354077 -280.62602248 236.65395057 -265.5625 291.9375 C-257.41032171 320.15047399 -244.26553217 347.06777027 -225.8125 370 C-225.00683594 371.00933594 -224.20117188 372.01867187 -223.37109375 373.05859375 C-212.53216444 386.37874849 -200.3571188 398.56834797 -186.51269531 408.74853516 C-184.81613496 409.99732441 -183.13854025 411.26887103 -181.4609375 412.54296875 C-172.42683001 419.30321188 -162.81825992 424.80989121 -152.8125 430 C-152.06371582 430.39074707 -151.31493164 430.78149414 -150.54345703 431.18408203 C-120.16478989 446.83648502 -86.63879972 454.45886093 -52.5625 454.375 C-51.68810272 454.37412384 -50.81370544 454.37324768 -49.91281128 454.37234497 C-0.77523608 454.21079463 47.72228358 437.94171679 86.1875 407 C87.18523437 406.2059375 88.18296875 405.411875 89.2109375 404.59375 C109.47559096 388.1415403 125.26077652 368.93140695 139.1875 347 C139.56503418 346.40783691 139.94256836 345.81567383 140.33154297 345.20556641 C168.27017136 300.73209923 177.31612848 243.22947619 167.1875 192 C166.58875734 189.63730658 165.91059884 187.32894173 165.1875 185 C154.99145169 186.53513536 145.12246549 189.30263113 135.1875 192 C135.4040625 193.06347656 135.620625 194.12695312 135.84375 195.22265625 C140.58769831 221.26516086 140.42399135 250.2655127 134.1875 276 C133.87401611 277.3305542 133.87401611 277.3305542 133.55419922 278.68798828 C125.06499878 313.73217078 106.65139118 344.66120009 81.1875 370 C80.29933594 370.88816406 79.41117187 371.77632813 78.49609375 372.69140625 C43.60583504 405.8771027 -6.31097128 424.25529039 -54.28515625 423.18359375 C-55.44917969 423.12300781 -56.61320313 423.06242187 -57.8125 423 C-59.00915283 422.9383667 -59.00915283 422.9383667 -60.22998047 422.87548828 C-96.85428109 420.80516029 -131.80805671 409.23691116 -161.8125 388 C-162.3890332 387.59313965 -162.96556641 387.1862793 -163.55957031 386.76708984 C-182.34917794 373.32156804 -198.38942777 356.46624444 -210.8125 337 C-211.20646973 336.38882324 -211.60043945 335.77764648 -212.00634766 335.14794922 C-224.45643844 315.61171877 -232.55330822 294.50918706 -237.8125 272 C-238.00457031 271.20223145 -238.19664062 270.40446289 -238.39453125 269.58251953 C-244.19275666 244.25954461 -242.74871578 214.08657661 -236.8125 189 C-236.64121582 188.2260791 -236.46993164 187.4521582 -236.29345703 186.65478516 C-233.35816585 173.6024673 -228.10043524 161.48646425 -222.76464844 149.25805664 C-221.73688011 146.9018351 -221.73688011 146.9018351 -220.8125 144 C-219.20917209 143.91878076 -217.60465974 143.86070866 -216 143.8125 C-215.10667969 143.77769531 -214.21335938 143.74289063 -213.29296875 143.70703125 C-210.8125 144 -210.8125 144 -208.98828125 145.07421875 C-207.11992413 148.13435184 -207.45447884 150.48253435 -207.8125 154 C-209.09765625 157.19140625 -209.09765625 157.19140625 -210.875 160.5625 C-229.26509379 197.71587469 -231.71308684 245.13458786 -218.80322266 284.43066406 C-202.96024322 330.23624752 -172.28446483 368.5848043 -128.35058594 390.21191406 C-109.96567658 398.89308914 -90.93997863 404.3216662 -70.8125 407 C-69.34490234 407.19722656 -69.34490234 407.19722656 -67.84765625 407.3984375 C-24.63133193 412.20747209 21.60246047 398.27756358 55.57080078 371.30810547 C89.81409814 343.60113065 113.00172132 307.64655553 121.1875 264 C121.37223877 263.05447266 121.55697754 262.10894531 121.74731445 261.13476562 C123.28101263 252.45175829 123.52741481 243.93462076 123.50317383 235.14501953 C123.50002224 232.76678169 123.5235398 230.38980334 123.54882812 228.01171875 C123.59041574 217.38011262 122.38029812 207.3973311 120.1875 197 C118.91970703 197.1539624 117.65191406 197.3079248 116.34570312 197.46655273 C115.63256958 197.55315659 114.91943604 197.63976044 114.18469238 197.72898865 C111.97046098 198.02945136 109.84548551 198.48446817 107.6875 199.0625 C106.5325 199.371875 105.3775 199.68125 104.1875 200 C104.11273438 200.82242188 104.03796875 201.64484375 103.9609375 202.4921875 C102.6772753 213.39073126 99.13434958 221.55998131 90.4375 228.52734375 C82.32932404 233.83425753 73.72151702 235.13804344 64.1875 234 C53.27797955 231.46157563 46.36335357 226.07029733 40.1875 217 C36.8845468 217.84623594 33.58179228 218.69323938 30.27929688 219.54125977 C27.25245431 220.31845957 24.22501458 221.09328281 21.19726562 221.86694336 C12.61299119 224.06484546 4.03957643 226.29806611 -4.51968384 228.59165955 C-9.0044169 229.79251384 -13.49180675 230.98327871 -17.97930908 232.17373657 C-20.18955868 232.76307846 -22.39852741 233.35724667 -24.60614014 233.95639038 C-27.74466022 234.80761043 -30.88732291 235.64166384 -34.03125 236.47265625 C-34.95720978 236.7284848 -35.88316956 236.98431335 -36.83718872 237.24789429 C-43.10123299 238.88031637 -49.33641263 239.82800691 -55.8125 239 C-57.8125 237 -57.8125 237 -58.12890625 233.14575195 C-57.98514185 227.08446685 -56.36717268 221.47855295 -54.75 215.66796875 C-54.43925537 214.51379959 -54.12851074 213.35963043 -53.80834961 212.17048645 C-52.82031644 208.50652496 -51.81736558 204.84687746 -50.8125 201.1875 C-49.80984246 197.50972716 -48.81044427 193.83113324 -47.81665039 190.1509552 C-47.19910522 187.86677259 -46.5760822 185.5840624 -45.94702148 183.30302429 C-45.66673096 182.27127579 -45.38644043 181.23952728 -45.09765625 180.17651367 C-44.84894775 179.27100266 -44.60023926 178.36549164 -44.34399414 177.43254089 C-43.67019491 174.76368645 -43.67019491 174.76368645 -43.8125 171 C-44.68261719 170.63648438 -44.68261719 170.63648438 -45.5703125 170.265625 C-54.5805491 166.39984692 -59.93191891 162.60940262 -64.8125 154 C-65.15667969 153.39414063 -65.50085938 152.78828125 -65.85546875 152.1640625 C-69.22393854 144.92106173 -68.96319819 135.66465825 -67.0859375 128.0546875 C-66.15284738 125.57403327 -65.09742615 123.31624845 -63.8125 121 C-63.461875 120.35546875 -63.11125 119.7109375 -62.75 119.046875 C-57.79582857 111.1339623 -50.07103967 107.64933031 -41.29296875 105.4453125 C-36.13598317 104.78549616 -31.0040616 104.91471119 -25.8125 105 C-24.72789238 101.07143013 -23.64351216 97.14279757 -22.55932617 93.21411133 C-22.19187287 91.88271464 -21.82436164 90.55133393 -21.45678711 89.2199707 C-21.27962158 88.57825928 -21.10245605 87.93654785 -20.91992188 87.27539062 C-20.74349152 86.63675079 -20.56706116 85.99811096 -20.38528442 85.34011841 C-19.85906902 83.43103037 -19.33650403 81.52093738 -18.81396484 79.61083984 C-18.17698196 77.31416094 -17.52291978 75.02209973 -16.84619141 72.73681641 C-16.56308105 71.7679248 -16.2799707 70.7990332 -15.98828125 69.80078125 C-15.73602783 68.96329346 -15.48377441 68.12580566 -15.22387695 67.26293945 C-14.77949421 64.81843875 -15.0253215 63.33338608 -15.8125 61 C-38.96643519 56.37471925 -63.68397814 55.95738665 -86.8125 61 C-87.58916016 61.16628906 -88.36582031 61.33257812 -89.16601562 61.50390625 C-113.82702045 66.96614686 -136.80638485 77.63060368 -156.8125 93 C-157.70839844 93.67160156 -158.60429687 94.34320313 -159.52734375 95.03515625 C-169.72557795 102.99437964 -179.52153292 112.42666165 -187.6953125 122.45703125 C-189.8125 125 -189.8125 125 -191.8125 126 C-195.19072416 126.14375422 -197.58640955 126.07536348 -200.8125 125 C-201.76948609 121.90474813 -202.15314389 119.2337181 -201.8125 116 C-199.64552743 112.20927415 -196.78258844 109.18044883 -193.8125 106 C-193.14089844 105.21238281 -192.46929687 104.42476563 -191.77734375 103.61328125 C-187.48213658 98.58370466 -182.88342307 94.23019411 -177.8125 90 C-176.93980469 89.23945313 -176.06710938 88.47890625 -175.16796875 87.6953125 C-167.48160724 81.08936325 -159.39862951 75.37817466 -150.8125 70 C-149.95833496 69.46246094 -149.95833496 69.46246094 -149.08691406 68.9140625 C-120.31424738 51.04242365 -86.18357017 42.7977194 -52.5625 42.75 C-51.43748077 42.74649536 -51.43748077 42.74649536 -50.28973389 42.74291992 C-39.21594226 42.72992355 -28.52638144 43.39404726 -17.6015625 45.34375 C-13.79652488 46.11377015 -13.79652488 46.11377015 -9.8125 46 C-8.63991384 41.56404241 -7.47544388 37.12599432 -6.3125 32.6875 C-5.97863281 31.42486328 -5.64476562 30.16222656 -5.30078125 28.86132812 C-4.98496094 27.65283203 -4.66914063 26.44433594 -4.34375 25.19921875 C-4.05048828 24.08377686 -3.75722656 22.96833496 -3.45507812 21.8190918 C-2.70138109 18.9944035 -2.70138109 18.9944035 -2.8125 16 C-6.41531383 15.34647055 -10.01996288 14.70364199 -13.625 14.0625 C-14.62982422 13.88009766 -15.63464844 13.69769531 -16.66992188 13.50976562 C-63.51717373 5.22488186 -114.17405668 14.15721763 -155.8125 37 Z M-47.625 125.3125 C-51.73475609 130.36162892 -53.3470998 134.36428352 -53.09765625 140.828125 C-52.34498598 146.56079169 -49.13051247 150.38491979 -44.8125 154 C-42.82896635 154.71416994 -40.82985042 155.38783849 -38.8125 156 C-37.66694163 151.659979 -36.52780214 147.31833905 -35.39453125 142.97509766 C-35.00826344 141.49840102 -34.62025804 140.02215774 -34.23046875 138.54638672 C-33.66987904 136.42272417 -33.11559774 134.29749939 -32.5625 132.171875 C-32.38750977 131.51443298 -32.21251953 130.85699097 -32.03222656 130.17962646 C-31.20037755 126.95778067 -30.8125 124.36469002 -30.8125 121 C-37.52831086 119.15315201 -42.39258121 121.01028899 -47.625 125.3125 Z M78.98828125 206.53125 C77.17553711 207.00498047 77.17553711 207.00498047 75.32617188 207.48828125 C73.4322168 207.98908203 73.4322168 207.98908203 71.5 208.5 C69.58864258 209.00080078 69.58864258 209.00080078 67.63867188 209.51171875 C64.48741115 210.33789197 61.33708099 211.16745032 58.1875 212 C58.1875 212.99 58.1875 213.98 58.1875 215 C63.95416341 218.35514962 68.47752365 220.18482465 75.1875 219 C80.5828599 217.07540268 83.92951573 213.5995072 87.1875 209 C88.04029338 206.78264561 88.04029338 206.78264561 88.1875 205 C84.84748719 205 82.21959063 205.68170387 78.98828125 206.53125 Z " fill="#000000" transform="translate(288.8125,42)"/>
<path d="M0 0 C2.86357722 0.58632294 5.5615337 1.4563576 8.3125 2.4375 C9.08029785 2.70409424 9.8480957 2.97068848 10.63916016 3.24536133 C38.2865958 13.11864838 63.78211293 27.82468982 86 47 C86.76828125 47.65742187 87.5365625 48.31484375 88.328125 48.9921875 C101.12770427 60.22360639 112.94843918 72.24583902 123 86 C123.45133301 86.61182129 123.90266602 87.22364258 124.36767578 87.85400391 C125.73258487 89.70929949 127.08798604 91.57098069 128.4375 93.4375 C128.83888184 93.99260254 129.24026367 94.54770508 129.65380859 95.11962891 C136.70204985 105.04677124 136.70204985 105.04677124 137.5625 110.6875 C137 114 137 114 134.875 116.4375 C131.46537255 118.29055839 129.81804737 118.71588388 126 118 C121.7601618 114.30067097 118.82065174 110.02572802 115.75 105.375 C111.1785683 98.59730866 106.35492136 92.18769394 101 86 C99.97712891 84.81083984 99.97712891 84.81083984 98.93359375 83.59765625 C73.35288879 54.5308147 39.09983489 28.52495872 1 19 C-1.64 28.24 -4.28 37.48 -7 47 C-2.99875 48.65 1.0025 50.3 5.125 52 C14.85156269 56.08679104 24.12496331 60.25605898 33 66 C33.62487305 66.40154297 34.24974609 66.80308594 34.89355469 67.21679688 C44.93370477 73.72113181 54.19972313 80.90015333 63 89 C63.5475293 89.50225098 64.09505859 90.00450195 64.65917969 90.52197266 C88.46150659 112.63624136 103.81919836 140.83478737 115 171 C115.77190674 170.78794922 116.54381348 170.57589844 117.33911133 170.35742188 C120.82917916 169.40102295 124.32080635 168.45044525 127.8125 167.5 C129.02744141 167.16613281 130.24238281 166.83226562 131.49414062 166.48828125 C133.23920898 166.01455078 133.23920898 166.01455078 135.01953125 165.53125 C136.09307861 165.23798828 137.16662598 164.94472656 138.27270508 164.64257812 C141 164 141 164 144 164 C143.566875 162.83984375 143.566875 162.83984375 143.125 161.65625 C140.95699042 155.57377868 139.17656804 150.46982251 140 144 C141.0625 142.0625 141.0625 142.0625 143 141 C146.20906363 140.24149405 148.79238193 139.69984059 152.02734375 140.50390625 C155.1200259 142.84944539 155.92134414 146.19634937 157.125 149.75 C157.50205078 150.80574219 157.50205078 150.80574219 157.88671875 151.8828125 C158.60863261 153.91626619 159.30505073 155.95720817 160 158 C160.57234375 159.59714844 160.57234375 159.59714844 161.15625 161.2265625 C161.94356985 163.814512 162.32741997 165.9319704 162.375 168.625 C162.40335938 169.35976562 162.43171875 170.09453125 162.4609375 170.8515625 C161.8093215 173.88875571 160.32536542 174.98607121 158 177 C155.73579407 177.9624939 155.73579407 177.9624939 153.1887207 178.63037109 C152.20794052 178.894785 151.22716034 179.15919891 150.21665955 179.43162537 C148.58767479 179.84832237 148.58767479 179.84832237 146.92578125 180.2734375 C145.75209488 180.58559708 144.57840851 180.89775665 143.36915588 181.21937561 C140.75459148 181.91259264 138.13923144 182.6005302 135.5211792 183.28024292 C131.21839165 184.39746573 126.92074626 185.53366539 122.62353516 186.67211914 C116.88246218 188.19141234 111.13991249 189.70494971 105.39588165 191.21302128 C91.20584159 194.93878527 77.02633647 198.7039259 62.84765625 202.47265625 C59.11290095 203.46526483 55.37814217 204.45786035 51.64338207 205.4504509 C49.13358996 206.11748116 46.62380464 206.78453699 44.11402607 207.45161819 C35.54205782 209.72968075 26.96916275 212.00422846 18.39575195 214.27685547 C17.22366149 214.58766682 16.05157103 214.89847816 14.84396267 215.21870804 C9.0777472 216.74774499 3.3112184 218.27557842 -2.45594788 219.80102539 C-13.07050384 222.61125928 -23.67640896 225.4480214 -34.26464844 228.35595703 C-36.17783968 228.87892158 -38.09107697 229.40171772 -40.00436401 229.92433167 C-43.5105528 230.88205591 -47.01290914 231.85232085 -50.51345825 232.83042908 C-52.0685627 233.25604485 -53.62380148 233.68117019 -55.17919922 234.10571289 C-55.86029125 234.30003214 -56.54138329 234.49435139 -57.24311447 234.6945591 C-62.53317616 236.11934777 -68.26857723 237.19062018 -73.4375 234.9375 C-75.76835779 232.04723634 -75.74388627 229.68499976 -76 226 C-75.5645781 223.06945903 -74.75836956 220.28858992 -73.91403198 217.45205688 C-73.55921098 216.19925967 -73.55921098 216.19925967 -73.19722188 214.92115343 C-72.40357372 212.13180325 -71.59024954 209.34859188 -70.77685547 206.56494141 C-70.20265073 204.56230208 -69.6296682 202.55931198 -69.05781555 200.55599976 C-67.50173091 195.11792377 -65.92853603 189.68493111 -64.35223532 184.25268602 C-62.70175154 178.55397872 -61.06695817 172.85077397 -59.43045044 167.14804077 C-56.32385305 156.33154326 -53.20302789 145.51920458 -50.07715523 134.70826375 C-46.539437 122.47024565 -43.01799317 110.22756512 -39.49775481 97.98450971 C-34.0088079 78.89631961 -28.51089068 59.81072935 -22.99951172 40.72900391 C-22.72730238 39.78606728 -22.45509304 38.84313065 -22.17463493 37.87162018 C-21.91155603 36.96042168 -21.64847713 36.04922318 -21.37742615 35.1104126 C-21.12156085 34.22417041 -20.86569556 33.33792821 -20.60207677 32.4248302 C-19.86920591 29.89153134 -19.13217988 27.35946773 -18.39492416 24.82744217 C-17.44877602 21.57224391 -16.52770879 18.31124748 -15.62280655 15.04435349 C-15.29107396 13.86668649 -15.29107396 13.86668649 -14.9526397 12.66522825 C-14.53902999 11.19633005 -14.13286696 9.72530543 -13.73575962 8.25186026 C-11.35946313 -0.10350362 -8.07785201 -0.84849326 0 0 Z M-12 63 C-15.25739848 73.10717613 -18.41982229 83.23739932 -21.375 93.4375 C-21.63748535 94.33041748 -21.8999707 95.22333496 -22.17041016 96.14331055 C-22.41065918 96.981604 -22.6509082 97.81989746 -22.8984375 98.68359375 C-23.11161621 99.42150146 -23.32479492 100.15940918 -23.54443359 100.91967773 C-24.14261274 103.29629758 -24.14261274 103.29629758 -24 107 C-22.44952934 108.47827509 -22.44952934 108.47827509 -20.375 109.6875 C-14.11515489 114.09380942 -9.69296579 120.24593034 -8.25 127.8515625 C-6.99691672 138.62024697 -8.48486718 148.51299977 -14.9375 157.5 C-20.16651573 163.79563088 -26.64308528 168.26447918 -34.88232422 169.39575195 C-35.8467041 169.46753662 -36.81108398 169.53932129 -37.8046875 169.61328125 C-38.78163574 169.68973877 -39.75858398 169.76619629 -40.76513672 169.8449707 C-41.87139404 169.92171021 -41.87139404 169.92171021 -43 170 C-44.85512312 176.37099202 -46.70611508 182.74317353 -48.55419922 189.11621094 C-49.18377463 191.28543465 -49.81430569 193.45438123 -50.44580078 195.62304688 C-51.35178221 198.73495797 -52.25435541 201.84783987 -53.15625 204.9609375 C-53.44060913 205.934935 -53.72496826 206.9089325 -54.01794434 207.91244507 C-54.27821411 208.81322784 -54.53848389 209.71401062 -54.80664062 210.64208984 C-55.03758423 211.43706879 -55.26852783 212.23204773 -55.50646973 213.05111694 C-56.08182944 214.98806614 -56.08182944 214.98806614 -56 217 C-41.87342114 213.82614776 -27.88780951 210.13818293 -13.90161133 206.39941406 C-10.66506291 205.53578563 -7.42696939 204.67850927 -4.18793583 203.82428551 C-1.07291369 203.00081576 2.03954206 202.16775455 5.15234375 201.3359375 C6.31362289 201.0307016 7.47490204 200.7254657 8.67137146 200.41098022 C9.73751175 200.12373077 10.80365204 199.83648132 11.90209961 199.54052734 C12.84121689 199.29056 13.78033417 199.04059265 14.74790955 198.78305054 C17.16426034 198.12618143 17.16426034 198.12618143 19 196 C18.70462173 194.32618981 18.36106097 192.66088045 18 191 C17.36883903 181.69037569 19.77224002 173.66107234 25.19921875 166.0390625 C28.30079106 162.52708691 31.92252546 160.24441519 36 158 C37.0725 157.401875 38.145 156.80375 39.25 156.1875 C48.58163029 153.23248374 57.94332707 153.1226119 67 157 C75.86492164 161.95573744 80.94755033 169.50348992 84 179 C89.23636687 178.44880349 93.93276976 177.51095593 99 176 C87.97467711 139.97427388 65.20853472 109.27596129 35 87 C34.43216797 86.5771875 33.86433594 86.154375 33.27929688 85.71875 C19.69259162 75.73540745 4.08754222 68.00464609 -12 63 Z M-30 124 C-31.14269374 127.95004306 -32.28193605 131.90106325 -33.41796875 135.85302734 C-33.80503783 137.19770272 -34.19305416 138.54210579 -34.58203125 139.88623047 C-35.14050415 141.81666612 -35.6953057 143.74816271 -36.25 145.6796875 C-36.75273437 147.42354736 -36.75273437 147.42354736 -37.265625 149.20263672 C-38.08463995 151.84038295 -38.08463995 151.84038295 -38 154 C-32.67426897 153.67722842 -29.53099455 150.70536465 -26 147 C-22.46673855 141.98504826 -22.26570961 136.94378299 -23 131 C-24.66459854 127.00496351 -26.17557791 125.76998047 -30 124 Z M36.5625 176.4375 C32.9189235 182.41296545 32.90520752 186.20932771 34 193 C45.76863385 190.33343613 57.39655743 187.3113918 69 184 C68.21419182 178.56482673 65.91196941 175.71111035 62 172 C53.89126695 166.95943622 42.94227061 170.05772939 36.5625 176.4375 Z " fill="#000000" transform="translate(350,0)"/>
<path d="M0 0 C7.30045026 5.23306612 12.82803068 12.40191315 14.3125 21.375 C15.20422548 31.50723072 14.80928476 40.24786436 8.6640625 48.62109375 C2.00698249 56.54272826 -5.03658168 61.70114809 -15.54296875 62.765625 C-26.52283112 63.23176971 -34.44819206 61.34511231 -43 54.25 C-50.5097654 47.09446882 -53.73702203 39.01998193 -54 28.75 C-53.89300416 19.07282099 -50.51829043 10.31228383 -43.6875 3.375 C-30.86569421 -7.45339645 -14.31511437 -8.73464606 0 0 Z M-32.4375 15.6875 C-36.28345511 20.28127971 -38.30528883 24.1503887 -38.03515625 30.29296875 C-37.15076381 35.58938639 -34.65995368 39.81084444 -30.625 43.3125 C-25.49019489 46.91778869 -20.76748447 46.87928666 -14.6875 46.375 C-9.2423127 44.59484261 -5.90523607 40.986739 -2.6875 36.375 C-0.94487818 31.14713455 -0.52183091 25.92930173 -2.8515625 20.82421875 C-5.48374097 16.70047248 -7.97222364 13.08964595 -12.6875 11.375 C-20.58271061 9.67739499 -26.06026591 10.32482588 -32.4375 15.6875 Z " fill="#000000" transform="translate(163.6875,333.625)"/>
<path d="M0 0 C7.95591987 6.8753397 13.44650976 14.24217506 14.37109375 24.953125 C14.75508509 35.44475935 12.76450019 43.29726387 5.9296875 51.38671875 C-1.88683164 59.3938847 -9.68016507 62.47698618 -20.8828125 63.01171875 C-31.6900627 62.44141531 -39.79425191 57.89077464 -47.15625 50.1328125 C-54.24417274 41.42525131 -54.65646771 31.84289173 -53.8828125 21.01171875 C-51.78732188 11.67037504 -46.02618469 3.7164357 -38.0078125 -1.42578125 C-25.99098316 -7.99862275 -11.47738639 -7.91597517 0 0 Z M-33.79296875 15.9296875 C-37.38250758 20.72422518 -38.6910517 24.74284344 -38.265625 30.7265625 C-37.2918549 36.5393738 -34.3971134 40.16025858 -29.8984375 43.7421875 C-25.64849045 46.41899524 -21.50271494 47.35815213 -16.51953125 46.69921875 C-10.58977178 45.10466158 -7.21600235 42.08494669 -3.8828125 37.01171875 C-1.56400538 32.90110613 -1.17628103 28.64833153 -1.8828125 24.01171875 C-4.14256484 17.78456031 -8.58290049 13.74417256 -14.3828125 10.69921875 C-21.624492 8.70775689 -28.48514874 10.60015861 -33.79296875 15.9296875 Z " fill="#000000" transform="translate(331.8828125,352.98828125)"/>
<path d="M0 0 C2.08324384 1.47028941 3.95878852 3.02964234 5.84375 4.74609375 C6.47410156 5.31070313 7.10445312 5.8753125 7.75390625 6.45703125 C14.11539051 12.85903451 16.90036317 21.48275319 17.28125 30.43359375 C16.72518695 40.24541601 12.81941013 48.92035935 5.76953125 55.7578125 C-2.7643381 62.86192363 -10.48164038 64.35428438 -21.5 64.08984375 C-31.95899137 63.10651978 -38.40460594 57.76171804 -45.40625 50.37109375 C-51.97528741 40.51753764 -52.86027944 30.32266574 -50.56640625 18.77734375 C-47.80674986 10.74000347 -41.5765553 3.20958097 -34.03125 -0.75390625 C-32.75265491 -1.28644487 -31.46105027 -1.78925688 -30.15625 -2.25390625 C-29.063125 -2.66640625 -27.97 -3.07890625 -26.84375 -3.50390625 C-17.58714846 -5.38660487 -8.29011991 -4.82088495 0 0 Z M-32.09375 18.80859375 C-35.83678733 24.13958631 -35.80063499 29.42022984 -35.15625 35.74609375 C-32.80090564 40.63796281 -29.4389042 43.55688317 -25.15625 46.74609375 C-20.14399506 48.4168454 -14.85168108 48.81140893 -9.86328125 46.83984375 C-5.42690796 44.24294231 -2.38266651 41.46609675 -0.15625 36.74609375 C1.39521441 30.71262105 1.33000016 25.93059834 -1.8515625 20.5 C-5.01185059 16.25158877 -8.98731605 13.13288091 -14.15625 11.74609375 C-21.44101915 10.9214029 -27.31216453 13.28289988 -32.09375 18.80859375 Z " fill="#000000" transform="translate(145.15625,180.25390625)"/>
<path d="M0 0 C2.9309082 1.35766602 2.9309082 1.35766602 5.80078125 3.25390625 C6.86103516 3.94419922 7.92128906 4.63449219 9.01367188 5.34570312 C10.10228516 6.07724609 11.19089844 6.80878906 12.3125 7.5625 C13.38951172 8.26697266 14.46652344 8.97144531 15.57617188 9.69726562 C18.73498497 11.77316642 21.86908578 13.88232338 25 16 C25.98097656 16.64743164 26.96195313 17.29486328 27.97265625 17.96191406 C28.875 18.56874023 29.77734375 19.17556641 30.70703125 19.80078125 C31.50471924 20.33227783 32.30240723 20.86377441 33.12426758 21.41137695 C35 23 35 23 36.375 26.625 C35.91286662 30.78420042 35.18940328 32.28900722 32 35 C28.73695097 35.96833625 26.26226894 36.49675789 23.01855469 35.22021484 C20.81515325 33.98784852 18.72381142 32.65313019 16.625 31.25 C15.85349609 30.7542749 15.08199219 30.2585498 14.28710938 29.74780273 C12.6697367 28.7060689 11.05748537 27.65634501 9.45019531 26.59912109 C7.02603158 25.01698952 4.57783115 23.48167896 2.1171875 21.95703125 C0.57765204 20.99294235 -0.96142786 20.0281255 -2.5 19.0625 C-3.22364746 18.61487305 -3.94729492 18.16724609 -4.69287109 17.70605469 C-5.36141113 17.2784082 -6.02995117 16.85076172 -6.71875 16.41015625 C-7.30591797 16.04027588 -7.89308594 15.67039551 -8.49804688 15.28930664 C-10.36400918 13.68752723 -11.12908549 12.29263382 -12 10 C-11.87085587 6.31939225 -11.77859391 3.9283235 -9.375 1.0625 C-6.07241127 -0.41497391 -3.59842562 -0.26137253 0 0 Z " fill="#000000" transform="translate(215,311)"/>
<path d="M0 0 C2.9873545 0.30483209 4.63783027 0.58059305 7.0625 2.3125 C8.86931914 4.72159219 9.0855075 5.97668834 8.87890625 8.9921875 C7.85552727 13.15425514 6.01710224 16.12958609 3.6875 19.6875 C3.24776855 20.37287842 2.80803711 21.05825684 2.35498047 21.7644043 C0.93854983 23.95690322 -0.4964682 26.13610124 -1.9375 28.3125 C-2.42734375 29.05612793 -2.9171875 29.79975586 -3.421875 30.56591797 C-4.8741468 32.76009047 -6.3396761 34.94457918 -7.8125 37.125 C-8.26415527 37.80030762 -8.71581055 38.47561523 -9.18115234 39.17138672 C-11.43750638 42.45969708 -13.41882171 45.26915852 -16.9375 47.3125 C-19.875 47.8125 -19.875 47.8125 -22.9375 47.3125 C-26.10740773 44.96952472 -27.73888946 43.56764142 -28.36450195 39.61401367 C-27.77960436 35.09167508 -25.79124615 32.31190864 -23.23046875 28.61328125 C-22.5086718 27.53798409 -22.5086718 27.53798409 -21.77229309 26.44096375 C-20.23596413 24.16003525 -18.6804902 21.89289171 -17.125 19.625 C-16.08930122 18.08869459 -15.05478269 16.55159283 -14.02148438 15.01367188 C-13.02971349 13.5461529 -12.03690939 12.07933154 -11.04296875 10.61328125 C-10.57722946 9.92575272 -10.11149017 9.23822418 -9.63163757 8.52986145 C-9.19140762 7.88876938 -8.75117767 7.24767731 -8.29760742 6.5871582 C-7.91344162 6.02567581 -7.52927582 5.46419342 -7.13346863 4.88569641 C-3.72014882 0.39576051 -3.72014882 0.39576051 0 0 Z " fill="#000000" transform="translate(379.9375,293.6875)"/>
<path d="M0 0 C2.97819304 0.09205324 4.02122686 0.31014179 6.625 1.9375 C8.74511145 5.38268111 8.74314926 7.39137143 8.125 11.375 C4.84260406 16.58155907 0.02388188 19.9855385 -4.75 23.79296875 C-8.86083973 27.12775572 -12.69760096 30.75910587 -16.546875 34.38916016 C-22.76850764 40.2315658 -22.76850764 40.2315658 -27.25 40.8125 C-30.875 40.375 -30.875 40.375 -33.875 38.3125 C-35.875 35.375 -35.875 35.375 -36 31.875 C-34.66563514 27.72364267 -33.03442046 26.34134477 -29.875 23.375 C-29.15739502 22.69244141 -29.15739502 22.69244141 -28.42529297 21.99609375 C-26.8768193 20.52800118 -25.31608592 19.07428427 -23.75 17.625 C-23.18885498 17.10566895 -22.62770996 16.58633789 -22.04956055 16.05126953 C-17.51251287 11.88810168 -12.82998556 7.9627337 -8.01953125 4.1171875 C-3.35065482 0.32425692 -3.35065482 0.32425692 0 0 Z " fill="#000000" transform="translate(209.875,231.625)"/>
<path d="M0 0 C7.384813 2.3078671 12.18913071 15.61569827 15.74365234 21.87304688 C16.42157739 23.05560258 17.09996006 24.23789606 17.77880859 25.41992188 C25.0056172 38.04873371 25.0056172 38.04873371 24.93115234 41.62304688 C23.72305771 45.48894972 22.54336998 46.69385251 18.99365234 48.62304688 C15.43115234 48.68554688 15.43115234 48.68554688 11.99365234 47.62304688 C9.07232962 44.38842082 6.85654858 40.89561879 4.68115234 37.13085938 C4.08044922 36.09574219 3.47974609 35.060625 2.86083984 33.99414062 C2.24466797 32.92292969 1.62849609 31.85171875 0.99365234 30.74804688 C0.06939453 29.15283203 0.06939453 29.15283203 -0.87353516 27.52539062 C-2.06279771 25.47097784 -3.24850357 23.41450091 -4.43017578 21.35571289 C-5.38026541 19.70850824 -6.33969825 18.06657246 -7.31689453 16.43530273 C-9.81300911 12.24452214 -10.74992765 9.54926432 -10.00634766 4.62304688 C-7.56848701 0.66152333 -4.64888168 -0.27690933 0 0 Z " fill="#000000" transform="translate(175.00634765625,129.376953125)"/>
<path d="M0 0 C3.72407554 2.54134701 4.35927105 6.76677205 5.48046875 10.88671875 C5.80704216 12.05047783 5.80704216 12.05047783 6.14021301 13.23774719 C6.59802689 14.87969853 7.05076396 16.52307267 7.4987793 18.16772461 C8.18138127 20.66511383 8.88533765 23.15575327 9.59179688 25.64648438 C10.03516101 27.2470344 10.47725883 28.84793585 10.91796875 30.44921875 C11.12729538 31.18597336 11.33662201 31.92272797 11.55229187 32.68180847 C12.91055593 37.74673303 14.58586007 44.10813752 11.9375 48.9375 C8.97391301 50.56269287 6.35205511 50.82357605 3 51 C0.26475538 50.09514532 -0.74297318 49.48059453 -2.11401367 46.91699219 C-2.54290894 45.62003418 -2.54290894 45.62003418 -2.98046875 44.296875 C-3.30966309 43.30880859 -3.63885742 42.32074219 -3.97802734 41.30273438 C-5.83395912 35.30487364 -7.61994233 29.29617493 -9.3125 23.25 C-9.68811351 21.96222864 -10.06376439 20.67446817 -10.43945312 19.38671875 C-10.78556641 18.15050781 -11.13167969 16.91429687 -11.48828125 15.640625 C-11.96068237 13.97821777 -11.96068237 13.97821777 -12.44262695 12.28222656 C-13.07764359 8.54277685 -12.83612528 5.69029043 -12 2 C-8.14376042 -1.62940196 -4.95339506 -1.28421353 0 0 Z " fill="#000000" transform="translate(225,377)"/>
<path d="M0 0 C4.14232108 3.1766919 5.45714195 7.21950859 7.015625 12.01953125 C7.27631775 12.79632736 7.5370105 13.57312347 7.80560303 14.37345886 C8.35249113 16.0130641 8.8934102 17.65467091 9.42871094 19.2980957 C10.24560719 21.79905125 11.08611987 24.29113505 11.9296875 26.78320312 C12.45977067 28.38233677 12.98846261 29.98193238 13.515625 31.58203125 C13.76556213 32.32081009 14.01549927 33.05958893 14.27301025 33.820755 C15.72177422 38.32823104 16.4002643 42.20694742 16 47 C14.07017583 49.71604883 12.65799225 50.74692606 9.5625 51.9375 C5.96339158 52.02528313 4.73000632 51.38000551 2 49 C-2.01355158 41.8646821 -4.24558993 33.68322431 -6.75 25.9375 C-7.16121094 24.70966797 -7.57242187 23.48183594 -7.99609375 22.21679688 C-11.79000353 10.51365657 -11.79000353 10.51365657 -11 4 C-7.74010218 0.16482609 -4.95707565 -0.84375756 0 0 Z " fill="#000000" transform="translate(367,91)"/>
<path d="M0 0 C1.08740479 -0.03528809 1.08740479 -0.03528809 2.19677734 -0.07128906 C4.86289429 0.3853058 6.20931942 1.42393114 8.1640625 3.265625 C9.26779628 7.23906661 9.57949833 9.35562272 7.8515625 13.140625 C5.53013477 16.06390437 4.60442911 16.21392979 0.85107422 16.65454102 C-0.56764416 16.78066743 -1.98679411 16.90199538 -3.40625 17.01953125 C-4.53883743 17.11729103 -4.53883743 17.11729103 -5.69430542 17.21702576 C-7.29635924 17.35428243 -8.8985902 17.48948445 -10.50097656 17.62280273 C-12.93085311 17.82561399 -15.35994896 18.03631474 -17.7890625 18.24804688 C-19.34891776 18.3806864 -20.90881253 18.51286216 -22.46875 18.64453125 C-23.18676788 18.70701553 -23.90478577 18.76949982 -24.64456177 18.83387756 C-37.5797766 19.89370545 -37.5797766 19.89370545 -41.8359375 17.765625 C-44.26205036 14.73298392 -44.39497318 13.03935933 -44.40234375 9.265625 C-43.56361561 6.30404701 -42.23919053 5.18320908 -39.8359375 3.265625 C-37.2385042 2.71102083 -34.98118508 2.38922892 -32.359375 2.21875 C-31.634086 2.15782166 -30.908797 2.09689331 -30.16152954 2.03411865 C-27.84565852 1.84429061 -25.52873079 1.68011356 -23.2109375 1.515625 C-21.67565254 1.39089727 -20.14049341 1.26461021 -18.60546875 1.13671875 C-12.41339369 0.63505102 -6.20973271 0.19597689 0 0 Z " fill="#000000" transform="translate(315.8359375,294.734375)"/>
<path d="M0 0 C1.06105957 -0.03625488 2.12211914 -0.07250977 3.21533203 -0.10986328 C4.62770142 -0.16678345 4.62770142 -0.16678345 6.06860352 -0.22485352 C9.38334102 0.33107394 10.51187809 1.62463221 12.59423828 4.19873047 C13.97172882 7.68837318 13.70538657 8.92350613 12.28173828 12.44873047 C10.59423828 15.19873047 10.59423828 15.19873047 8.59423828 16.19873047 C5.8380206 16.5082752 3.09617448 16.76779586 0.33251953 16.98779297 C-0.49149857 17.05533783 -1.31551666 17.12288269 -2.164505 17.19247437 C-3.91198373 17.33412416 -5.65964667 17.47351654 -7.4074707 17.61083984 C-10.06589205 17.821561 -12.72305178 18.04490493 -15.38037109 18.26904297 C-17.08017873 18.40523763 -18.78004699 18.54067811 -20.47998047 18.67529297 C-21.26878098 18.74293854 -22.05758148 18.81058411 -22.87028503 18.88027954 C-34.12310791 19.72983568 -34.12310791 19.72983568 -38.31591797 16.91748047 C-40.40723148 13.61935163 -40.03427994 9.94190563 -39.40576172 6.19873047 C-36.3294298 2.55270746 -32.10071522 2.37507982 -27.55004883 1.90161133 C-24.14809725 1.64180849 -20.74606443 1.38467739 -17.34326172 1.13623047 C-16.17859375 1.04535156 -15.01392578 0.95447266 -13.81396484 0.86083984 C-9.21187124 0.51984906 -4.60667774 0.26880543 0 0 Z " fill="#000000" transform="translate(131.40576171875,282.80126953125)"/>
</svg>
