<?xml version="1.0" encoding="UTF-8"?>
<svg version="1.1" xmlns="http://www.w3.org/2000/svg" width="512" height="512">
<path d="M0 0 C1.40874875 0.39490751 2.81760399 0.7894353 4.2265625 1.18359375 C5.34816772 1.51725952 5.34816772 1.51725952 6.49243164 1.85766602 C11.88148539 3.30320178 15.67220272 3.00927178 20.9140625 0.99609375 C22.31480971 0.5122798 23.71719363 0.0331811 25.12109375 -0.44140625 C25.81283691 -0.67859375 26.50458008 -0.91578125 27.21728516 -1.16015625 C59.88404755 -11.82944633 99.76851609 -8.86034397 131.4375 3.4296875 C137.02690096 4.94054798 141.9775231 2.67511817 147.2890625 0.87109375 C160.69952166 -3.48873754 175.11325613 -6.40732491 189.2265625 -6.81640625 C190.29100586 -6.85507813 190.29100586 -6.85507813 191.37695312 -6.89453125 C236.30802344 -8.35927682 279.60409016 5.94867306 312.76220703 36.77099609 C323.81418988 47.43234534 331.32655809 61.81870913 331.60668945 77.2878418 C331.58128462 89.77854946 330.1747317 100.62535631 323.08203125 111.31640625 C322.05064665 113.14906205 322.05064665 113.14906205 322.4375 115.19140625 C323.28989053 117.34348134 324.34232759 119.03531572 325.6640625 120.93359375 C330.27973084 128.1848756 330.91138798 134.78686188 329.2265625 143.18359375 C328.15212147 146.64421671 326.78750582 149.52593606 324.4140625 152.30859375 C324.0221875 152.92734375 323.6303125 153.54609375 323.2265625 154.18359375 C323.90174704 156.78829706 323.90174704 156.78829706 325.2265625 159.18359375 C326.98843599 164.46921421 327.01190022 170.18098257 324.9765625 175.37109375 C323.83906534 178.35795404 323.83906534 178.35795404 325.9765625 181.49609375 C326.358125 182.09292969 326.7396875 182.68976563 327.1328125 183.3046875 C332.61289912 192.71869345 331.31840694 207.60792851 328.9765625 217.87109375 C326.40111091 226.68058236 320.68877424 232.97739951 313.2265625 238.18359375 C308.00675193 240.71475189 302.97375606 241.67045147 297.2265625 242.18359375 C297.46632813 242.9725 297.46632813 242.9725 297.7109375 243.77734375 C300.50383535 256.81086704 297.29034466 271.0471525 290.2265625 282.18359375 C279.113801 297.58722579 264.96687868 305.96716248 246.2265625 309.18359375 C241.43050128 309.57092721 236.6663091 309.58979382 231.85647583 309.56454468 C230.45351069 309.56801002 229.05054829 309.57278042 227.64759147 309.57872641 C223.82931147 309.59114618 220.011259 309.58510764 216.19297862 309.57576776 C212.06062394 309.5689401 207.92830658 309.57947688 203.79595947 309.58770752 C195.71470843 309.60100833 187.63354125 309.59818325 179.552287 309.5894696 C172.97996898 309.5826781 166.40767437 309.58178266 159.83535385 309.58504105 C158.42905794 309.58573059 158.42905794 309.58573059 156.99435201 309.58643407 C155.08939791 309.58739331 153.18444382 309.58836595 151.27948974 309.58935185 C133.43934632 309.59789529 115.59924923 309.58808853 97.75911342 309.57195075 C82.47529068 309.55855292 67.19153634 309.56087329 51.90771484 309.57470703 C34.13192523 309.59078893 16.35617619 309.5970668 -1.41961968 309.58787024 C-3.31794555 309.58691466 -5.21627143 309.58597155 -7.11459732 309.58504105 C-8.04844929 309.58457822 -8.98230126 309.58411539 -9.94445177 309.58363854 C-16.50238491 309.58105615 -23.06029216 309.5854035 -29.61822128 309.59247971 C-37.6196194 309.60092415 -45.62092931 309.59855317 -53.62231742 309.58263747 C-57.6991518 309.57479351 -61.77583953 309.57159632 -65.85267258 309.58158493 C-69.59459585 309.59061377 -73.33623841 309.58546645 -77.0781367 309.56965227 C-79.05174698 309.56478544 -81.0253772 309.57442726 -82.9989661 309.58482397 C-101.94363268 309.46195187 -117.74469899 304.49517987 -132.14453125 291.859375 C-139.93716377 283.9277951 -145.93215092 272.8953874 -147.1484375 261.74609375 C-146.7734375 258.18359375 -146.7734375 258.18359375 -144.7109375 255.18359375 C-141.7734375 253.18359375 -141.7734375 253.18359375 -138.2109375 253.05859375 C-133.96179342 254.44922272 -133.01249034 255.32315781 -130.7734375 259.18359375 C-130.14703007 260.90482832 -129.54531786 262.63514032 -128.9609375 264.37109375 C-125.34872859 274.73353089 -119.42242599 281.91030934 -109.7734375 287.18359375 C-102.23337935 290.54383706 -95.07864135 292.30486303 -86.80282307 292.31502151 C-85.62375615 292.31886266 -84.44468924 292.3227038 -83.22989303 292.32666135 C-81.94362382 292.32579487 -80.65735461 292.32492838 -79.33210754 292.32403564 C-77.94471027 292.3266211 -76.55731374 292.32963476 -75.16991824 292.33303905 C-71.36237695 292.34109107 -67.55485454 292.34289761 -63.74730575 292.34363651 C-59.63877285 292.34549019 -55.53024967 292.35303909 -51.42172241 292.35977173 C-42.44022195 292.37334262 -33.45872596 292.37937778 -24.47721696 292.38378239 C-18.86719751 292.38654681 -13.25717977 292.39078452 -7.64716148 292.39528656 C7.89104065 292.40747741 23.42924142 292.41777721 38.96744823 292.42116165 C39.96155532 292.42138122 40.9556624 292.42160078 41.97989394 292.421827 C43.47458217 292.42215442 43.47458217 292.42215442 44.99946612 292.42248845 C47.01860567 292.42293191 49.03774522 292.42337848 51.05688477 292.42382812 C52.05844352 292.42404955 53.06000227 292.42427098 54.09191129 292.42449912 C70.31833405 292.42844659 86.54471189 292.44589988 102.77111729 292.46918765 C119.43791504 292.49291403 136.10469027 292.50536408 152.77150518 292.50652957 C162.1263275 292.50744558 171.48109127 292.51317944 180.83589745 292.53134918 C188.80206854 292.5467675 196.76816299 292.5518604 204.73434617 292.54361108 C208.79646788 292.53971076 212.85843533 292.54060387 216.92053795 292.55466843 C220.6446318 292.56744441 224.36845605 292.56617768 228.09254972 292.55407771 C230.06647764 292.5512083 232.04041039 292.56302839 234.014301 292.57549977 C246.66116878 292.50558912 260.09944235 289.59371826 269.7890625 280.8125 C277.54161824 272.02767461 281.66501916 262.29360771 281.4296875 250.60546875 C281.19137006 247.7639916 280.70719577 244.9932275 280.2265625 242.18359375 C279.32336816 242.18473291 278.42017382 242.18587207 277.48960996 242.18704575 C223.95413387 242.25418593 170.41866226 242.30565645 116.8831525 242.33678974 C110.45449092 242.34054184 104.02582942 242.34442481 97.59716797 242.34838867 C95.67742895 242.34956907 95.67742895 242.34956907 93.71890733 242.35077331 C72.99855029 242.36382577 52.27821824 242.38747875 31.55787602 242.41505214 C10.29550631 242.44311076 -10.96685033 242.45977098 -32.22923779 242.46585923 C-45.34831732 242.46997472 -58.46732624 242.48297135 -71.58638403 242.50734315 C-80.58368433 242.52320595 -89.58094814 242.52799286 -98.57826141 242.52409788 C-103.76852939 242.5221772 -108.95867402 242.52511323 -114.14892006 242.54121017 C-118.90520028 242.55585322 -123.66127466 242.55651755 -128.41756454 242.54629043 C-130.13378699 242.54502719 -131.85002251 242.54879526 -133.56621942 242.5582433 C-146.93435793 242.62752933 -159.12682542 242.28401925 -169.3984375 232.74609375 C-177.56946111 223.92998933 -180.08796204 215.50679602 -179.92578125 203.5234375 C-179.74002256 200.67037449 -179.29634699 198.62024893 -177.7734375 196.18359375 C-175.13229225 194.03154947 -173.66211105 194.18749994 -170.2109375 194.30859375 C-166.7734375 195.18359375 -166.7734375 195.18359375 -165.1171875 196.74609375 C-162.97528901 200.63139799 -162.9916473 204.82052493 -162.68945312 209.1640625 C-162.22529979 214.14316186 -160.98210468 217.17576414 -157.7734375 221.18359375 C-152.31380437 225.24332095 -146.81042768 225.33159 -140.21240425 225.3122282 C-139.07737419 225.31485776 -139.07737419 225.31485776 -137.91941422 225.31754044 C-135.37538595 225.32220472 -132.83141471 225.31973383 -130.28738403 225.31730652 C-128.44839617 225.31917427 -126.6094087 225.32147483 -124.77042186 225.32417184 C-119.71012647 225.33030061 -114.64984757 225.33015498 -109.5895493 225.32897747 C-104.13478035 225.32877373 -98.68001673 225.33428958 -93.22525024 225.33903503 C-82.53606382 225.34734791 -71.84688291 225.35009016 -61.15769352 225.35064741 C-52.47127684 225.35112224 -43.78486199 225.35317535 -35.09844589 225.35634804 C-10.48290776 225.36515613 14.13262626 225.36977321 38.74816595 225.36901756 C39.74344747 225.36898765 39.74344747 225.36898765 40.75883568 225.36895712 C42.10063672 225.36891669 43.44243777 225.36887489 44.78423881 225.36883173 C65.66329507 225.36821889 86.5423351 225.37572693 107.42138672 225.3894043 C130.87512449 225.40476192 154.32885336 225.41335805 177.78259671 225.41244107 C190.20237091 225.41210874 202.6221268 225.41487182 215.04189682 225.42561913 C225.61505459 225.43470971 236.18818575 225.43691125 246.76134573 225.4301097 C252.15757635 225.42683727 257.55375588 225.42681383 262.94998169 225.43546295 C267.8883418 225.44329693 272.82661003 225.44192839 277.76496781 225.43317882 C279.55295301 225.43163698 281.34094497 225.43348561 283.12892221 225.4390389 C285.55734209 225.44608271 287.98543816 225.44081817 290.41384697 225.43248272 C291.1095667 225.4374509 291.80528644 225.44241908 292.52208859 225.44753781 C298.35376767 225.40515916 303.34854008 224.67747522 307.9765625 220.99609375 C312.47327412 215.37520423 313.72404838 210.28777507 313.6015625 203.18359375 C313.61896484 202.17425781 313.61896484 202.17425781 313.63671875 201.14453125 C313.60734848 196.07326521 312.42054714 192.64121334 310.2265625 188.18359375 C309.49695313 188.40015625 308.76734375 188.61671875 308.015625 188.83984375 C295.60568625 192.14916075 283.05844136 192.33499412 270.4921875 189.63671875 C265.56959888 188.65220103 261.53248321 188.5403553 257.2265625 191.18359375 C255.82391467 192.85048814 255.82391467 192.85048814 254.6015625 194.80859375 C247.70449823 204.30929978 237.64170961 210.50269205 226.13671875 212.80078125 C213.91923371 214.40791351 204.65021831 211.63476971 194.2265625 205.18359375 C193.18048828 204.34634766 193.18048828 204.34634766 192.11328125 203.4921875 C190.14704031 201.86301516 190.14704031 201.86301516 186.8515625 202.18359375 C181.48149396 203.66499197 178.54572943 206.83144764 174.7265625 210.74609375 C167.24796478 218.03772652 158.38464269 221.00897823 148.1015625 221.43359375 C137.4981461 221.272665 129.28791033 217.68541813 120.94921875 211.4921875 C116.47294766 208.22724418 116.47294766 208.22724418 111.2265625 206.80859375 C107.33851735 208.59061444 104.75649418 211.20093066 101.65625 214.11328125 C93.08760119 221.41454149 82.86957277 223.69837043 71.8515625 223.48828125 C60.79712719 222.5591369 51.29775868 217.45813143 43.59375 209.49609375 C41.30085238 207.29491203 39.3361024 207.24456512 36.2265625 207.18359375 C33.99288881 208.42452358 32.22391899 209.63368202 30.2265625 211.18359375 C19.59014552 218.78952321 8.85310958 222.92277338 -4.375 220.7578125 C-14.07381914 218.47984777 -23.59430919 213.92487283 -29.4921875 205.6640625 C-31.71287123 203.09808953 -33.8996218 202.30205361 -37.22265625 201.8515625 C-40.48133823 202.27574009 -42.0073764 203.48406627 -44.5859375 205.49609375 C-53.10926666 211.76511 -62.23919707 214.05472542 -72.7734375 213.18359375 C-86.78206497 210.95280017 -95.24338318 204.31554624 -104.7734375 194.18359375 C-107.49047308 191.29551903 -107.49047308 191.29551903 -110.7734375 189.18359375 C-112.880365 189.24683032 -114.98542461 189.38255983 -117.0859375 189.55859375 C-118.78169922 189.69394531 -118.78169922 189.69394531 -120.51171875 189.83203125 C-123.64366553 190.1098544 -123.64366553 190.1098544 -126.15625 190.70703125 C-141.22877572 193.45158071 -156.74951346 190.79027096 -169.5234375 182.37109375 C-174.23402192 177.7913589 -176.01690397 174.11239736 -176.2109375 167.62109375 C-176.0677066 163.07506939 -174.92841638 160.19969075 -172.7734375 156.18359375 C-173.30539387 154.03505939 -173.30539387 154.03505939 -174.7734375 152.18359375 C-179.28017061 145.61127463 -180.39540589 138.57993888 -179.390625 130.75 C-178.10554098 125.40632782 -175.67949081 120.08964706 -171.7734375 116.18359375 C-172.13009828 112.50629807 -173.38010614 109.76302452 -175.1484375 106.55859375 C-181.84424577 93.28342605 -183.23803628 77.5908868 -179.2109375 63.18359375 C-171.49438592 42.11147214 -154.93411453 29.1221502 -136.7734375 17.18359375 C-135.85304687 16.57644531 -134.93265625 15.96929687 -133.984375 15.34375 C-94.7013648 -9.05597887 -43.7135123 -12.57539201 0 0 Z M-143.7734375 42.18359375 C-144.30227539 42.60785645 -144.83111328 43.03211914 -145.37597656 43.46923828 C-154.38737452 50.82730062 -162.80610361 60.32689398 -164.7734375 72.18359375 C-166.02158567 87.08336252 -162.70091779 99.36676312 -153.18359375 111.15234375 C-142.20614102 122.9305048 -126.75909904 127.58392477 -111.10517156 128.36712515 C-107.03255757 128.44273582 -102.96459392 128.45556224 -98.89152527 128.44429016 C-97.32428265 128.44731704 -95.75704151 128.4512092 -94.18980294 128.45588273 C-89.91744041 128.46610233 -85.64516235 128.46399643 -81.37279308 128.45970213 C-76.75166807 128.45722386 -72.13056284 128.46626268 -67.50944519 128.47373962 C-58.46934989 128.48645818 -49.42928432 128.48828387 -40.38918158 128.48593936 C-33.0374134 128.48415285 -25.68565421 128.48591297 -18.3338871 128.4901638 C-16.7615026 128.49105659 -16.7615026 128.49105659 -15.15735275 128.49196741 C-13.02748439 128.49317922 -10.89761603 128.49439335 -8.76774768 128.49560978 C11.1850494 128.50647437 31.13782955 128.50432795 51.09062757 128.49822494 C69.32108453 128.49305677 87.55148803 128.50431051 105.78193442 128.52332316 C124.52707399 128.54272184 143.27218831 128.55095399 162.01733798 128.5471999 C172.53083632 128.54529094 183.04428918 128.54774569 193.55777931 128.56191444 C202.50812125 128.57385511 211.45838969 128.57520308 220.40873269 128.56312428 C224.96972812 128.55725442 229.53058931 128.55608345 234.09157562 128.56812668 C238.2770195 128.5790493 242.46221809 128.57580718 246.6476508 128.56186499 C248.15157453 128.55923549 249.65551789 128.56152881 251.15942226 128.56960086 C270.61131858 128.66665538 288.59798504 125.62189584 303.109375 111.5625 C306.51036349 107.74109411 308.99906036 103.77781692 311.2265625 99.18359375 C311.6390625 98.3534375 312.0515625 97.52328125 312.4765625 96.66796875 C316.53615859 87.25196115 316.85626535 76.13744326 313.7265625 66.37109375 C306.63808172 49.87246948 292.11032612 39.2231574 277.2265625 30.18359375 C276.26435791 29.59747314 276.26435791 29.59747314 275.28271484 28.99951172 C240.95484233 8.52308613 198.83210312 4.29823879 160.35375977 13.72460938 C135.9315371 20.23792821 107.05036683 33.62542955 92.2265625 55.18359375 C91.34205699 56.9604787 90.4881274 58.75288414 89.6640625 60.55859375 C87.59461193 64.96889825 87.59461193 64.96889825 84.2265625 66.93359375 C80.81359974 67.21800731 79.14606461 66.96773393 76.2265625 65.18359375 C74.30122347 62.73316226 74.19032368 61.53843216 74.5078125 58.4296875 C78.36691164 41.00082126 94.09396588 29.44617396 108.2265625 20.18359375 C110.53639962 18.80027293 112.86938219 17.48608697 115.2265625 16.18359375 C112.95951289 13.91654414 112.04188997 13.74918405 108.97265625 13.1484375 C108.11736328 12.97892578 107.26207031 12.80941406 106.38085938 12.63476562 C105.48431641 12.46525391 104.58777344 12.29574219 103.6640625 12.12109375 C102.79458984 11.94771484 101.92511719 11.77433594 101.02929688 11.59570312 C62.80645003 4.15635709 21.3575029 11.86727594 -11.1171875 33.57421875 C-17.0282754 37.70070914 -22.45203116 42.33064684 -27.7734375 47.18359375 C-28.55589844 47.88355469 -29.33835938 48.58351562 -30.14453125 49.3046875 C-34.54968193 53.44336403 -37.61825176 57.7974206 -40.546875 63.08203125 C-41.7734375 65.18359375 -41.7734375 65.18359375 -43.7734375 67.18359375 C-50.88003648 67.8604127 -50.88003648 67.8604127 -53.8359375 65.62109375 C-55.44328144 61.4419995 -54.59207615 58.14978838 -52.8984375 54.08203125 C-45.63980299 39.81679816 -32.0753591 28.95996654 -18.81201172 20.49414062 C-15.85352849 18.60558103 -13.0969279 16.84023167 -10.7734375 14.18359375 C-55.82014697 0.13576335 -107.57728398 13.03197792 -143.7734375 42.18359375 Z M-159.7734375 127.18359375 C-162.92800053 131.81999231 -162.92800053 131.81999231 -163.8359375 137.18359375 C-160.61734769 146.27137673 -154.02339267 150.49834882 -145.7109375 154.75 C-115.70281259 168.6079188 -76.61831597 168.06168886 -45.8671875 156.86328125 C-38.65928648 154.04352368 -32.34650289 150.4987405 -27.7734375 144.18359375 C-28.85734772 144.1755069 -29.94125793 144.16742004 -31.05801392 144.15908813 C-41.32562144 144.08124786 -51.5931026 143.99341655 -61.8605442 143.89606667 C-67.13779756 143.84634482 -72.41503319 143.80001472 -77.69238281 143.76171875 C-82.79533908 143.72455878 -87.89813775 143.67812012 -93.00095749 143.62553024 C-94.93753643 143.60714802 -96.87414893 143.59198199 -98.81077957 143.58024979 C-120.12625749 143.4466245 -138.86565275 141.47801778 -156.61328125 128.72265625 C-158.46711653 127.08688332 -158.46711653 127.08688332 -159.7734375 127.18359375 Z M309.2265625 127.18359375 C308.37835938 127.77527344 307.53015625 128.36695313 306.65625 128.9765625 C287.60595552 141.94469931 268.83265075 143.4617014 246.390625 143.59765625 C244.41522448 143.61640697 242.43983163 143.63598316 240.46444702 143.65634155 C235.3124244 143.70725684 230.16037592 143.74709752 225.00823975 143.78448486 C219.7319928 143.82478181 214.45584959 143.87575576 209.1796875 143.92578125 C198.86205248 144.02205853 188.54435831 144.10661459 178.2265625 144.18359375 C195.11490597 161.17562091 219.11716138 164.36174654 242.15863037 164.55245972 C254.09015031 164.58681347 265.63635494 164.25955117 277.2265625 161.18359375 C278.24508301 160.91820801 278.24508301 160.91820801 279.28417969 160.64746094 C291.47118779 157.40020935 305.39134615 152.84051821 312.6640625 141.80859375 C314.49257766 137.56643857 314.55350219 135.57908146 313.2265625 131.18359375 C311.23317387 128.99705845 311.23317387 128.99705845 309.2265625 127.18359375 Z M9.2265625 144.18359375 C26.39370045 161.3507317 51.37627653 164.41389857 74.6015625 164.43359375 C75.67203323 164.43460587 75.67203323 164.43460587 76.76412964 164.43563843 C99.18817515 164.40197389 124.15352934 161.33376026 141.2265625 145.18359375 C141.2265625 144.85359375 141.2265625 144.52359375 141.2265625 144.18359375 C97.6665625 144.18359375 54.1065625 144.18359375 9.2265625 144.18359375 Z M-9.7734375 145.18359375 C-10.10214844 145.81265625 -10.43085938 146.44171875 -10.76953125 147.08984375 C-19.35144548 162.53263791 -33.71460341 168.97229494 -49.95703125 174.12109375 C-61.50497386 177.3360788 -73.24550645 179.15794605 -85.2109375 179.74609375 C-86.45133789 179.81086914 -86.45133789 179.81086914 -87.71679688 179.87695312 C-89.73553299 179.98197408 -91.75446701 180.08317934 -93.7734375 180.18359375 C-89.32379499 188.00788868 -83.83636219 193.61332678 -75.2109375 196.55859375 C-67.57574563 198.51633525 -61.71785508 196.71483546 -54.7734375 193.18359375 C-52.37831247 191.68054972 -50.06621303 190.11836559 -47.78125 188.453125 C-42.53199794 185.13404539 -35.54914627 185.43531692 -29.625 186.609375 C-22.86707217 188.78633594 -18.01534044 193.64670358 -13.3984375 198.87109375 C-8.77879676 202.94077726 -2.89149912 205.32512118 3.2890625 205.68359375 C11.87256544 204.59362512 17.84894698 200.25046223 24.55078125 194.98828125 C30.11216969 191.23738861 35.68645574 190.3700425 42.2265625 191.18359375 C49.74807839 192.97100343 54.39943434 196.90439775 59.93359375 202.12109375 C65.44279287 207.07655736 70.99523856 207.79985369 78.1640625 207.59375 C84.95239631 206.68459815 90.12203953 203.6012771 94.7265625 198.62109375 C99.56218098 193.42223633 105.79163325 191.03822875 112.8515625 190.74609375 C121.38856122 191.23947546 126.33682489 194.94809335 132.78125 200.30859375 C137.69423681 204.07574019 142.82252444 205.79833201 149.08203125 205.5390625 C157.07424322 204.21430605 163.59640153 200.50590235 168.6015625 194.18359375 C172.91081012 189.25873933 177.95886773 186.56100893 184.5234375 185.98046875 C193.92013746 185.80091397 199.50918704 188.56579066 207.13671875 193.8203125 C212.15059348 197.09104573 217.33270924 197.97154205 223.2265625 197.18359375 C232.38337214 195.1876835 238.4004955 189.16158274 244.2265625 182.18359375 C244.2265625 181.52359375 244.2265625 180.86359375 244.2265625 180.18359375 C243.13601563 180.14621094 242.04546875 180.10882813 240.921875 180.0703125 C221.001581 179.25833187 201.20471789 176.31257927 183.2265625 167.18359375 C182.48148437 166.81621094 181.73640625 166.44882812 180.96875 166.0703125 C171.24749166 161.01196282 165.36146632 154.8504392 160.2265625 145.18359375 C158.70157481 147.20021926 157.19955687 149.22234719 155.75390625 151.296875 C146.3306988 164.33192609 131.24730762 170.7203498 116.1640625 174.99609375 C115.48150391 175.19090332 114.79894531 175.38571289 114.09570312 175.58642578 C101.35089276 178.96302703 88.57410257 179.55855262 75.4765625 179.49609375 C74.68286255 179.49427094 73.8891626 179.49244812 73.07141113 179.49057007 C61.54194592 179.44597118 50.44268031 179.08713991 39.2265625 176.18359375 C38.56430664 176.01730469 37.90205078 175.85101563 37.21972656 175.6796875 C20.74210988 171.43652441 2.52604103 164.17788727 -6.58203125 149.1015625 C-7.75608631 147.04925228 -7.75608631 147.04925228 -9.7734375 145.18359375 Z M-159.7734375 166.18359375 C-159.64339055 168.13257392 -159.64339055 168.13257392 -158.7734375 170.18359375 C-156.60703561 171.51002765 -156.60703561 171.51002765 -153.9609375 172.37109375 C-153.08824219 172.69464844 -152.21554688 173.01820313 -151.31640625 173.3515625 C-147.58904393 174.57111423 -144.45757057 175.31166263 -140.5234375 175.24609375 C-139.2859375 175.22546875 -138.0484375 175.20484375 -136.7734375 175.18359375 C-140.71964619 173.1435172 -144.77569722 171.35664795 -148.8359375 169.55859375 C-149.55587891 169.23375 -150.27582031 168.90890625 -151.01757812 168.57421875 C-155.23341341 166.70084013 -155.23341341 166.70084013 -159.7734375 166.18359375 Z M299.2890625 169.55859375 C298.57298828 169.87570312 297.85691406 170.1928125 297.11914062 170.51953125 C293.78393567 172.00321835 290.47030108 173.50667407 287.2265625 175.18359375 C295.18940628 175.62597396 303.80996273 174.31687356 310.2265625 169.18359375 C310.2265625 168.19359375 310.2265625 167.20359375 310.2265625 166.18359375 C306.12341982 166.18359375 302.96064568 167.90194387 299.2890625 169.55859375 Z " fill="#000000" transform="translate(180.7734375,104.81640625)"/>
</svg>
